<svg width="476" height="434" viewBox="0 0 476 434" fill="none" xmlns="http://www.w3.org/2000/svg">
<path d="M311.1 64.98C310.063 65.8132 308.854 66.4073 307.56 66.72C304.01 67.51 294.56 67.11 292.96 71.45C292.449 72.7523 291.652 73.9238 290.63 74.8788C289.607 75.8339 288.384 76.5483 287.05 76.97C287.05 76.97 279.56 77.37 279.16 78.97C278.76 80.57 276.01 83.31 276.01 83.31H405C405 83.31 409.34 76.61 402.24 70.31C396.03 64.79 384.68 73.15 383.24 66.31" stroke="#263238" stroke-linecap="round" stroke-linejoin="round"/>
<path d="M382.07 56.2699C380.63 51.0799 377.6 44.0799 371.45 41.4799C361.19 37.1399 352.52 43.0599 350.15 48.9699C347.78 54.8799 346.21 58.8299 337.15 53.6999C328.09 48.5699 320.15 48.9699 317.43 55.6999C316.645 57.6483 315.664 59.5113 314.5 61.2599" stroke="#263238" stroke-linecap="round" stroke-linejoin="round"/>
<path d="M92.0498 133.74H136.84C136.84 133.74 139.46 129.74 135.17 125.87C130.88 122 122.52 129.21 123.72 121.1C123.72 121.1 122.72 111.1 116.56 108.46C114.974 107.734 113.227 107.435 111.49 107.593C109.753 107.75 108.088 108.36 106.66 109.36" stroke="#263238" stroke-linecap="round" stroke-linejoin="round"/>
<path d="M103.68 112.99C102.25 116.57 101.29 118.99 95.81 115.85C90.33 112.71 85.55 112.99 83.88 117.05C82.21 121.11 80.06 123.25 77.88 123.72C75.7 124.19 70.01 123.96 69.05 126.59C68.7383 127.377 68.2554 128.085 67.6362 128.663C67.017 129.241 66.2771 129.674 65.47 129.93C65.47 129.93 60.94 130.16 60.7 131.12C60.2229 132.099 59.5763 132.986 58.79 133.74H85" stroke="#263238" stroke-linecap="round" stroke-linejoin="round"/>
<path d="M316.25 133.74H337.4C337.4 133.74 340.02 129.74 335.73 125.87C331.44 122 323.09 129.21 324.28 121.1C324.28 121.1 323.33 111.1 317.12 108.46C310.91 105.82 305.68 109.46 304.24 112.99C302.8 116.52 301.86 118.99 296.37 115.85C290.88 112.71 286.11 112.99 284.45 117.05C282.79 121.11 280.63 123.25 278.45 123.72C276.27 124.19 270.58 123.96 269.63 126.59C269.317 127.376 268.834 128.084 268.215 128.661C267.596 129.239 266.857 129.672 266.05 129.93C266.05 129.93 261.52 130.16 261.28 131.12C260.803 132.099 260.156 132.986 259.37 133.74H309.19" stroke="#263238" stroke-linecap="round" stroke-linejoin="round"/>
<g opacity="0.1">
<path opacity="0.1" d="M12.23 199.81C16.17 200.59 24.92 198.48 24.92 198.48C24.92 198.48 21.78 193.13 21.54 192.82C18.73 189.2 11.17 183.82 6.36001 185.62C5.56864 185.935 4.8522 186.412 4.25711 187.021C3.66201 187.63 3.20153 188.358 2.9055 189.156C2.60948 189.955 2.48451 190.807 2.53868 191.657C2.59286 192.506 2.82498 193.336 3.22001 194.09C4.79001 197.35 8.88001 199.14 12.23 199.81Z" fill="black"/>
<path opacity="0.1" d="M20.8202 224.64C24.6602 224.37 32.0101 220.39 32.6001 220.07C34.8717 224.278 37.4207 228.33 40.2302 232.2C41.8502 234.46 43.5602 236.69 45.3002 238.9C44.3502 238.01 43.5002 237.22 43.3702 237.12C39.7102 234.38 31.0102 231.23 26.8302 234.19C26.1499 234.703 25.5849 235.352 25.1718 236.097C24.7587 236.842 24.5068 237.666 24.4323 238.514C24.3578 239.363 24.4625 240.217 24.7394 241.023C25.0164 241.828 25.4596 242.567 26.0402 243.19C28.4202 245.91 32.8302 246.56 36.2402 246.32C39.6502 246.08 46.0402 242.8 47.7002 241.92C48.3802 242.76 49.0402 243.61 49.7002 244.45C52.9602 248.45 56.2302 252.45 59.3202 256.51C60.4102 257.93 61.4201 259.37 62.4501 260.8C61.6101 260.01 60.9002 259.35 60.7802 259.26C57.1102 256.51 48.4202 253.36 44.2402 256.33C43.5572 256.841 42.9898 257.49 42.5749 258.235C42.16 258.98 41.907 259.804 41.8324 260.653C41.7578 261.503 41.8634 262.358 42.1422 263.164C42.4209 263.97 42.8666 264.708 43.4502 265.33C45.8302 268.06 50.2402 268.7 53.6502 268.46C57.0602 268.22 62.8302 265.26 64.8102 264.22C65.8102 265.72 66.8102 267.22 67.7302 268.72C68.3302 269.72 68.9702 270.72 69.5102 271.79L71.1702 274.92C72.1702 276.92 73.1702 279.04 74.0802 281.04C74.7202 282.43 75.3102 283.76 75.9002 285.11C74.8302 283.68 72.6902 280.93 72.4802 280.72C69.2802 277.46 61.1602 273.03 56.5702 275.32C55.8202 275.723 55.1634 276.279 54.6424 276.952C54.1214 277.626 53.7478 278.401 53.546 279.228C53.3442 280.055 53.3186 280.916 53.471 281.753C53.6233 282.591 53.9501 283.387 54.4302 284.09C56.3702 287.15 60.6302 288.45 64.0402 288.73C67.7902 289.04 75.3702 286.36 76.3102 286.02C77.3102 288.25 78.2102 290.42 79.0502 292.49C79.6835 294.01 80.2735 295.48 80.8202 296.9L83.9402 296.22C83.2735 294.653 82.5768 293.013 81.8502 291.3C80.8502 289.04 79.7801 286.64 78.6301 284.19C80.7732 282.742 82.8269 281.166 84.7802 279.47C87.9502 281.69 95.2302 283.47 96.1702 283.74C95.7502 286.13 95.3302 288.45 94.8902 290.64C94.6602 291.8 94.4301 292.89 94.2001 293.98L97.5002 293.26C97.6302 292.58 97.7502 291.91 97.8702 291.2C98.3102 288.77 98.7202 286.2 99.1202 283.49C100.12 283.49 108.12 283.36 111.57 281.77C114.67 280.32 118.21 277.62 118.97 274.08C119.176 273.253 119.206 272.393 119.057 271.554C118.908 270.715 118.585 269.917 118.108 269.212C117.631 268.506 117.01 267.909 116.287 267.459C115.564 267.009 114.754 266.716 113.91 266.6C108.82 266.04 102.74 273.01 100.91 277.19C100.8 277.44 99.9102 280.25 99.3702 282.03C99.5202 280.93 99.6902 279.87 99.8302 278.74C100.14 276.51 100.38 274.28 100.65 271.87C100.74 270.71 100.83 269.53 100.92 268.34C101.01 267.15 101.01 265.91 101.06 264.68C101.06 261.82 101.06 258.93 100.88 256.02C102.88 256.28 109.79 257.12 113.08 256.16C116.37 255.2 120.28 253.06 121.56 249.68C121.891 248.895 122.052 248.049 122.033 247.197C122.015 246.346 121.817 245.508 121.453 244.738C121.089 243.968 120.566 243.283 119.919 242.729C119.273 242.174 118.517 241.763 117.7 241.52C112.7 240.19 105.7 246.16 103.2 250.01C103.05 250.25 101.58 253.21 100.8 254.85C100.7 253.1 100.6 251.36 100.44 249.59C99.9702 244.49 99.3402 239.34 98.7402 234.2C98.5502 232.62 98.3802 231.05 98.2102 229.48C98.9002 229.58 107.15 230.76 110.84 229.68C114.12 228.68 118.03 226.58 119.32 223.2C119.649 222.414 119.808 221.568 119.788 220.716C119.768 219.865 119.57 219.027 119.205 218.257C118.84 217.487 118.317 216.803 117.67 216.249C117.023 215.695 116.267 215.283 115.45 215.04C110.45 213.71 103.45 219.69 100.96 223.53C100.77 223.82 98.6602 228.09 98.1802 229.2C97.8002 225.73 97.4502 222.28 97.2502 218.86C96.9501 214.245 96.9501 209.615 97.2502 205C97.5702 205.05 106.17 206.32 109.95 205.21C113.23 204.21 117.15 202.12 118.43 198.73C118.759 197.945 118.919 197.099 118.9 196.248C118.88 195.397 118.682 194.559 118.318 193.79C117.954 193.02 117.432 192.336 116.787 191.781C116.141 191.227 115.386 190.814 114.57 190.57C109.57 189.25 102.57 195.22 100.07 199.07C99.8802 199.37 97.6102 203.95 97.2602 204.82C97.2602 204.55 97.2602 204.27 97.2602 204C97.689 199.381 98.529 194.81 99.7701 190.34C100.42 187.86 101.19 185.53 101.98 183.28C103.56 183.68 110.79 185.43 114.3 184.81C117.81 184.19 121.79 182.52 123.44 179.3C123.852 178.555 124.103 177.732 124.176 176.884C124.249 176.036 124.143 175.182 123.865 174.378C123.587 173.573 123.143 172.837 122.561 172.215C121.98 171.593 121.274 171.101 120.49 170.77C115.71 168.9 108.04 174.07 105.15 177.62C105 177.81 103.62 179.95 102.63 181.52C103.01 180.52 103.37 179.46 103.75 178.52C105.16 174.91 106.67 171.69 108.03 168.84C108.82 167.23 109.56 165.84 110.27 164.45C112.02 164.04 119.07 162.28 121.85 160.15C124.63 158.02 127.44 154.67 127.42 151.05C127.444 150.198 127.288 149.351 126.963 148.564C126.638 147.776 126.15 147.066 125.532 146.479C124.914 145.892 124.18 145.442 123.377 145.158C122.574 144.874 121.719 144.762 120.87 144.83C115.77 145.38 111.34 153.49 110.42 157.98C110.34 158.36 109.78 164.57 109.87 164.55H109.97C109.26 165.83 108.52 167.2 107.73 168.72C106.31 171.54 104.73 174.72 103.23 178.33C101.594 182.158 100.181 186.078 99.0002 190.07C97.6439 194.569 96.6935 199.181 96.1602 203.85C96.1553 203.907 96.1553 203.963 96.1602 204.02C95.8602 202.55 94.9002 198.46 94.7902 198.15C93.2502 193.84 87.7402 186.42 82.6102 186.58C81.7617 186.633 80.9338 186.863 80.18 187.256C79.4263 187.649 78.7635 188.196 78.2346 188.862C77.7057 189.528 77.3226 190.297 77.1099 191.12C76.8973 191.943 76.8599 192.802 77.0002 193.64C77.4802 197.22 80.8002 200.19 83.7802 201.88C87.1402 203.77 95.4701 204.5 96.1301 204.56C95.7029 209.324 95.5927 214.111 95.8002 218.89C95.9102 221.67 96.1002 224.47 96.3302 227.28C96.0402 226.01 95.7602 224.88 95.7102 224.73C94.1702 220.42 88.6502 213 83.5302 213.16C82.6803 213.21 81.8504 213.438 81.0947 213.83C80.339 214.222 79.6743 214.769 79.1441 215.435C78.6139 216.101 78.2299 216.872 78.0173 217.696C77.8047 218.521 77.7682 219.381 77.9102 220.22C78.3902 223.81 81.7102 226.78 84.6902 228.46C87.6702 230.14 94.8002 230.94 96.6902 231.12C96.7902 232.19 96.8702 233.27 96.9802 234.34C97.4702 239.5 97.9801 244.64 98.3401 249.71C98.4701 251.49 98.5201 253.25 98.5901 255.01C98.3201 253.89 98.0902 252.95 98.0402 252.81C96.5002 248.49 91.0402 241.07 85.8602 241.23C85.0098 241.281 84.1798 241.511 83.4241 241.904C82.6683 242.297 82.0038 242.845 81.4737 243.512C80.9436 244.179 80.5598 244.95 80.3473 245.775C80.1348 246.6 80.0983 247.46 80.2402 248.3C80.7202 251.89 84.0501 254.86 87.0201 256.54C89.9901 258.22 96.4402 258.94 98.6702 259.16C98.6702 260.96 98.6702 262.77 98.6702 264.52C98.5902 265.72 98.6002 266.87 98.4602 268.07C98.3202 269.27 98.2302 270.43 98.1202 271.59C97.8102 273.83 97.5202 276.13 97.1202 278.3C96.8902 279.81 96.6402 281.25 96.3902 282.7C96.2902 280.92 96.0102 277.44 95.9602 277.16C95.0337 273.235 93.1159 269.613 90.3902 266.64C90.3114 266.198 90.1874 265.766 90.0201 265.35C89.7373 264.547 89.2884 263.812 88.7027 263.194C88.1169 262.576 87.4074 262.088 86.6205 261.763C85.8336 261.437 84.987 261.281 84.1357 261.305C83.2845 261.328 82.4478 261.531 81.6802 261.9C77.1202 264.24 75.9002 273.41 76.6802 277.9C76.6802 278.16 77.5302 281 78.0602 282.78C77.5902 281.78 77.1402 280.78 76.6402 279.78C75.6402 277.78 74.6402 275.78 73.5302 273.6L71.8102 270.51C71.2502 269.51 70.5402 268.43 69.9002 267.38C68.3702 264.97 66.7002 262.6 64.9702 260.26C66.7502 259.4 72.9702 256.26 75.2302 253.64C77.4902 251.02 79.5202 247.09 78.7302 243.56C78.5668 242.726 78.2303 241.935 77.7424 241.239C77.2545 240.543 76.626 239.957 75.8976 239.519C75.1692 239.08 74.357 238.8 73.5134 238.695C72.6698 238.59 71.8137 238.663 71.0002 238.91C66.1402 240.54 63.5502 249.42 63.6002 253.99C63.6002 254.28 64.0102 257.56 64.2602 259.36C63.2602 257.96 62.1702 256.55 61.0602 255.16C57.8602 251.16 54.4902 247.22 51.1502 243.27C50.1502 242.06 49.1502 240.84 48.1502 239.63C48.7802 239.33 56.3102 235.76 58.7902 232.82C61.0002 230.21 63.0802 226.27 62.2902 222.74C62.132 221.902 61.7991 221.108 61.3129 220.408C60.8268 219.708 60.1985 219.118 59.469 218.677C58.7395 218.237 57.9252 217.955 57.0793 217.85C56.2335 217.745 55.3751 217.82 54.5602 218.07C49.7002 219.69 47.1102 228.57 47.1602 233.15C47.1602 233.49 47.7602 238.21 47.9602 239.4C45.7402 236.73 43.5402 234.04 41.4902 231.3C38.6981 227.615 36.1462 223.753 33.8501 219.74C34.1401 219.6 42.0102 215.91 44.5502 212.9C46.7602 210.29 48.8502 206.35 48.0502 202.82C47.8918 201.984 47.5591 201.19 47.0736 200.491C46.5881 199.792 45.9608 199.202 45.2325 198.762C44.5041 198.321 43.6912 198.039 42.8465 197.934C42.0018 197.828 41.1444 197.902 40.3302 198.15C35.4602 199.77 32.8701 208.65 32.9201 213.23C32.9201 213.59 33.5702 218.67 33.7502 219.58C33.6202 219.34 33.4502 219.12 33.3202 218.88C31.1364 214.787 29.3161 210.511 27.8802 206.1C27.0602 203.68 26.4102 201.31 25.8802 198.99C27.4202 198.46 34.4102 195.93 37.0002 193.47C39.5902 191.01 42.0002 187.47 41.5802 183.84C41.516 182.99 41.2735 182.164 40.8683 181.414C40.4632 180.665 39.9046 180.009 39.2289 179.49C38.5533 178.971 37.7758 178.601 36.9472 178.402C36.1186 178.204 35.2575 178.183 34.4201 178.34C29.4201 179.42 25.8601 187.96 25.4201 192.52C25.4201 192.77 25.4202 195.31 25.4802 197.17C25.2302 196.12 24.9602 195.04 24.7402 194.03C23.9202 190.24 23.4002 186.72 22.9702 183.6C22.7402 181.82 22.5701 180.21 22.4201 178.7C23.6501 177.39 28.5502 172.03 29.7002 168.7C30.8502 165.37 31.3402 161.04 29.3302 158.04C28.8795 157.316 28.2818 156.696 27.5758 156.218C26.8698 155.741 26.0713 155.417 25.232 155.268C24.3928 155.119 23.5316 155.148 22.7043 155.353C21.8771 155.559 21.1023 155.936 20.4302 156.46C16.4902 159.73 17.2701 168.95 18.9701 173.2C19.1101 173.57 22.0702 179.05 22.1302 178.98L22.2101 178.9C22.3201 180.36 22.4602 181.9 22.6402 183.62C23.0102 186.75 23.4501 190.29 24.1901 194.12C24.9525 198.248 25.9542 202.328 27.1901 206.34C28.5412 210.837 30.2915 215.204 32.4201 219.39C32.4201 219.39 32.4802 219.49 32.5002 219.54C31.5002 218.47 28.3902 215.59 28.1302 215.4C24.4602 212.65 15.7702 209.5 11.5902 212.47C10.9072 212.981 10.3398 213.63 9.92486 214.375C9.50996 215.12 9.25696 215.944 9.18239 216.793C9.10783 217.643 9.21338 218.498 9.49215 219.304C9.77092 220.11 10.2166 220.848 10.8002 221.47C13.0002 224.21 17.4102 224.85 20.8202 224.64Z" fill="black"/>
<path opacity="0.1" d="M101.58 182.35C101.67 182.35 101.91 176.16 101.88 175.77C101.53 171.2 98.1702 162.59 93.1902 161.39C92.3567 161.215 91.4956 161.216 90.6629 161.396C89.8302 161.575 89.0445 161.927 88.3569 162.43C87.6693 162.932 87.0953 163.574 86.672 164.313C86.2487 165.053 85.9858 165.873 85.9002 166.72C85.4202 170.31 87.8402 174.05 90.2602 176.46C93.1102 179.29 101.58 182.35 101.58 182.35Z" fill="black"/>
</g>
<g opacity="0.1">
<path opacity="0.1" d="M458.06 285.93C454.68 286.05 447.69 283.13 447.69 283.13C447.69 283.13 451.01 279.13 451.26 278.88C454.07 276.25 461.06 272.83 464.83 274.88C465.446 275.247 465.977 275.74 466.391 276.326C466.804 276.912 467.09 277.578 467.229 278.281C467.369 278.984 467.359 279.709 467.201 280.408C467.042 281.107 466.739 281.766 466.31 282.34C464.56 284.88 460.93 285.82 458.06 285.93Z" fill="black"/>
<path opacity="0.1" d="M447.61 305.39C444.45 304.66 438.88 300.39 438.43 300.02C435.971 303.217 433.298 306.244 430.43 309.08C428.78 310.75 427.07 312.37 425.33 313.98C426.23 313.36 427.04 312.82 427.17 312.76C430.58 310.96 438.22 309.51 441.3 312.53C441.797 313.046 442.181 313.661 442.425 314.334C442.67 315.008 442.77 315.726 442.719 316.44C442.668 317.155 442.467 317.851 442.13 318.484C441.792 319.116 441.325 319.67 440.76 320.11C438.42 322.06 434.67 322 431.87 321.35C429.07 320.7 424.19 317.12 422.93 316.16C422.25 316.77 421.59 317.39 420.93 317.99C417.69 320.91 414.44 323.8 411.33 326.74C410.24 327.74 409.2 328.83 408.16 329.88C408.96 329.34 409.64 328.88 409.75 328.82C413.16 327.03 420.81 325.58 423.89 328.6C424.387 329.115 424.77 329.729 425.015 330.402C425.259 331.075 425.359 331.791 425.308 332.505C425.257 333.219 425.057 333.915 424.719 334.546C424.382 335.178 423.915 335.731 423.35 336.17C421.01 338.17 417.26 338.07 414.45 337.42C411.64 336.77 407.25 333.53 405.74 332.42C404.74 333.53 403.67 334.65 402.74 335.77C402.1 336.55 401.44 337.26 400.85 338.09L399.05 340.47C397.97 342.02 396.84 343.62 395.82 345.16C395.1 346.23 394.44 347.26 393.76 348.3C394.84 347.25 396.99 345.3 397.19 345.11C400.29 342.82 407.62 340.23 411.13 342.74C411.699 343.176 412.17 343.726 412.513 344.356C412.856 344.985 413.063 345.68 413.121 346.394C413.178 347.109 413.085 347.828 412.847 348.504C412.609 349.18 412.232 349.799 411.74 350.32C409.74 352.6 406 353.12 403.13 352.89C399.98 352.65 394.04 349.41 393.3 349C392.19 350.72 391.13 352.4 390.16 354C389.44 355.18 388.75 356.33 388.1 357.43L385.6 356.43C386.35 355.21 387.15 353.95 387.99 352.62C389.11 350.87 390.34 349.03 391.62 347.14C390.032 345.652 388.536 344.069 387.14 342.4C384.21 343.82 377.92 344.4 377.14 344.4C377.14 346.4 377.21 348.4 377.29 350.3C377.29 351.3 377.37 352.24 377.41 353.17L374.77 352.17C374.77 351.58 374.77 351.01 374.77 350.4C374.77 348.32 374.77 346.1 374.77 343.83C373.95 343.69 367.27 342.52 364.65 340.74C362.27 339.12 359.65 336.4 359.53 333.36C359.468 332.646 359.557 331.926 359.792 331.249C360.027 330.571 360.401 329.951 360.892 329.428C361.383 328.906 361.978 328.492 362.64 328.215C363.301 327.938 364.013 327.803 364.73 327.82C369.03 328.04 373.15 334.64 374.15 338.36C374.21 338.58 374.58 341.03 374.79 342.59C374.79 341.65 374.79 340.75 374.84 339.79C374.84 337.9 374.98 336.01 375.07 333.98C375.16 332.98 375.24 331.98 375.32 330.98C375.4 329.98 375.57 328.98 375.7 327.92C376.03 325.54 376.49 323.15 377 320.75C375.34 320.75 369.45 320.48 366.84 319.24C364.23 318 361.28 315.71 360.66 312.72C360.493 312.024 360.473 311.3 360.604 310.596C360.734 309.892 361.011 309.223 361.416 308.633C361.822 308.043 362.347 307.544 362.957 307.17C363.568 306.796 364.25 306.554 364.96 306.46C369.25 306.02 374.32 311.92 375.87 315.46C375.97 315.68 376.8 318.34 377.22 319.8C377.54 318.36 377.85 316.92 378.22 315.48C379.29 311.3 380.5 307.11 381.69 302.92C382.06 301.63 382.4 300.35 382.76 299.07C382.17 299.07 375.16 298.94 372.24 297.55C369.64 296.31 366.67 294.01 366.06 291.03C365.889 290.334 365.868 289.609 365.997 288.904C366.126 288.198 366.402 287.528 366.808 286.937C367.214 286.346 367.74 285.848 368.352 285.474C368.965 285.101 369.649 284.861 370.36 284.77C374.65 284.33 379.72 290.23 381.27 293.77C381.38 294.03 382.57 297.86 382.82 298.84C383.6 296.02 384.35 293.19 384.97 290.38C385.836 286.588 386.454 282.743 386.82 278.87C386.54 278.87 379.23 278.77 376.24 277.34C373.64 276.11 370.67 273.81 370.05 270.83C369.881 270.133 369.861 269.408 369.99 268.703C370.12 267.998 370.396 267.328 370.802 266.736C371.207 266.145 371.733 265.645 372.344 265.271C372.956 264.896 373.639 264.654 374.35 264.56C378.65 264.12 383.71 270.03 385.26 273.56C385.39 273.84 386.66 277.96 386.84 278.72C386.84 278.49 386.9 278.26 386.92 278.04C387.179 274.143 387.089 270.231 386.65 266.35C386.44 264.21 386.12 262.17 385.76 260.19C384.4 260.31 378.16 260.8 375.32 259.82C372.48 258.84 369.4 256.92 368.46 254.02C368.216 253.346 368.117 252.628 368.169 251.913C368.221 251.198 368.423 250.502 368.762 249.87C369.1 249.238 369.568 248.684 370.134 248.245C370.701 247.806 371.354 247.491 372.05 247.32C376.26 246.41 381.95 251.72 383.88 255.06C383.98 255.24 384.88 257.2 385.45 258.64C385.28 257.75 385.11 256.83 384.93 255.98C384.24 252.79 383.41 249.91 382.66 247.37C382.22 245.93 381.79 244.63 381.38 243.37C379.98 242.79 374.38 240.37 372.38 238.25C370.38 236.13 368.46 232.95 368.96 229.95C369.052 229.238 369.293 228.554 369.668 227.942C370.042 227.33 370.542 226.804 371.133 226.398C371.725 225.992 372.396 225.716 373.102 225.587C373.808 225.458 374.533 225.479 375.23 225.65C379.39 226.79 381.99 234.12 382.17 237.97C382.17 238.31 381.82 243.53 381.75 243.5H381.66C382.08 244.66 382.52 245.9 382.97 247.27C383.78 249.8 384.67 252.67 385.43 255.85C386.296 259.275 386.964 262.748 387.43 266.25C387.954 270.17 388.132 274.129 387.96 278.08C387.954 278.127 387.954 278.174 387.96 278.22C388.4 277.03 389.75 273.76 389.88 273.52C391.73 270.15 397.3 264.71 401.54 265.52C402.239 265.676 402.898 265.977 403.473 266.404C404.049 266.831 404.528 267.375 404.88 267.999C405.231 268.623 405.448 269.315 405.515 270.028C405.582 270.741 405.499 271.461 405.27 272.14C404.39 275.06 401.27 277.14 398.54 278.14C395.49 279.27 388.47 278.76 387.92 278.72C387.576 282.729 386.968 286.711 386.1 290.64C385.64 292.94 385.1 295.24 384.54 297.54C384.95 296.54 385.33 295.63 385.4 295.54C387.26 292.16 392.83 286.73 397.06 287.54C397.76 287.695 398.42 287.995 398.996 288.422C399.572 288.849 400.052 289.392 400.404 290.017C400.756 290.641 400.972 291.333 401.039 292.047C401.105 292.761 401.02 293.481 400.79 294.16C399.91 297.07 396.79 299.1 394.06 300.1C391.33 301.1 385.33 300.81 383.74 300.7C383.52 301.58 383.3 302.47 383.07 303.34C381.97 307.56 380.86 311.77 379.89 315.93C379.55 317.4 379.26 318.85 378.98 320.31C379.35 319.41 379.66 318.66 379.72 318.55C381.58 315.17 387.15 309.74 391.39 310.55C392.089 310.706 392.748 311.007 393.323 311.434C393.899 311.861 394.378 312.405 394.73 313.029C395.081 313.653 395.298 314.345 395.365 315.058C395.432 315.771 395.349 316.491 395.12 317.17C394.24 320.08 391.12 322.11 388.38 323.11C385.64 324.11 380.24 323.84 378.38 323.73C378.13 325.23 377.88 326.73 377.7 328.2C377.61 329.2 377.45 330.2 377.4 331.2L377.22 334.2C377.17 336.1 377.11 338.05 377.11 339.9C377.11 341.19 377.11 342.42 377.11 343.65C377.43 342.19 378.11 339.34 378.21 339.11C379.493 335.974 381.559 333.22 384.21 331.11C384.337 330.762 384.498 330.427 384.69 330.11C385.034 329.482 385.505 328.933 386.075 328.499C386.644 328.065 387.299 327.755 387.995 327.59C388.692 327.425 389.416 327.408 390.119 327.541C390.823 327.674 391.491 327.953 392.08 328.36C395.56 330.92 395.35 338.7 394.08 342.36C394.01 342.57 392.97 344.83 392.29 346.24C392.82 345.47 393.29 344.72 393.87 343.93C394.95 342.38 396.07 340.85 397.28 339.21L399.12 336.87C399.72 336.08 400.45 335.31 401.12 334.52C402.72 332.73 404.42 330.98 406.17 329.26C404.8 328.31 400.02 324.87 398.53 322.4C397.04 319.93 395.83 316.4 396.97 313.55C397.214 312.881 397.595 312.271 398.089 311.758C398.583 311.245 399.179 310.842 399.838 310.574C400.498 310.305 401.206 310.178 401.917 310.199C402.629 310.221 403.328 310.392 403.97 310.7C407.79 312.7 408.76 320.42 408.11 324.22C408.11 324.45 407.29 327.13 406.84 328.58C407.9 327.58 408.95 326.53 410.06 325.53C413.26 322.63 416.58 319.8 419.88 316.97L422.88 314.34C422.39 314.01 416.61 310.04 414.94 307.27C413.45 304.81 412.25 301.27 413.38 298.43C413.624 297.761 414.005 297.151 414.499 296.638C414.993 296.125 415.588 295.721 416.247 295.452C416.906 295.183 417.614 295.054 418.326 295.074C419.038 295.095 419.737 295.264 420.38 295.57C424.2 297.57 425.17 305.29 424.52 309.09C424.52 309.38 423.35 313.22 423.02 314.18C425.23 312.26 427.41 310.31 429.48 308.31C432.343 305.601 435.022 302.705 437.5 299.64C437.27 299.48 431.23 295.37 429.5 292.53C428.01 290.06 426.8 286.53 427.93 283.68C428.175 283.007 428.56 282.392 429.058 281.877C429.556 281.361 430.157 280.956 430.821 280.687C431.486 280.419 432.199 280.293 432.916 280.317C433.632 280.342 434.335 280.516 434.98 280.83C438.8 282.83 439.77 290.55 439.12 294.35C439.07 294.65 437.86 298.78 437.59 299.51C437.73 299.34 437.89 299.17 438.03 298.99C440.395 295.884 442.48 292.574 444.26 289.1C445.26 287.19 446.12 285.31 446.91 283.47C445.7 282.82 440.23 279.78 438.41 277.4C436.59 275.02 435.07 271.71 435.88 268.78C436.047 268.082 436.359 267.428 436.797 266.859C437.234 266.29 437.786 265.82 438.418 265.479C439.049 265.139 439.745 264.935 440.461 264.882C441.176 264.828 441.895 264.927 442.57 265.17C446.57 266.74 448.4 274.3 448.17 278.17C448.17 278.38 447.79 280.49 447.51 282.02C447.85 281.19 448.22 280.33 448.51 279.52C449.69 276.52 450.59 273.62 451.37 271.08C451.8 269.64 452.16 268.32 452.48 267.08C451.63 265.82 448.27 260.72 447.76 257.82C447.25 254.92 447.42 251.23 449.49 249.01C449.96 248.469 450.539 248.032 451.188 247.729C451.838 247.426 452.544 247.263 453.261 247.251C453.978 247.239 454.689 247.378 455.349 247.658C456.008 247.939 456.602 248.355 457.09 248.88C459.94 252.13 458.09 259.68 456.09 262.98C455.92 263.27 452.73 267.43 452.69 267.37L452.63 267.29C452.35 268.49 452.02 269.76 451.63 271.15C451 273.64 450.12 276.56 449 279.64C447.825 282.971 446.456 286.23 444.9 289.4C443.178 292.959 441.14 296.356 438.81 299.55C438.783 299.589 438.753 299.626 438.72 299.66C439.72 298.92 442.67 296.93 442.91 296.8C446.32 295.01 453.97 293.55 457.05 296.57C457.547 297.086 457.931 297.701 458.175 298.374C458.42 299.048 458.52 299.765 458.469 300.48C458.418 301.195 458.217 301.891 457.88 302.524C457.542 303.156 457.075 303.71 456.51 304.15C454.17 306.1 450.41 306.05 447.61 305.39Z" fill="black"/>
<path opacity="0.1" d="M386.14 259.51C386.06 259.51 386.69 254.32 386.77 253.99C387.67 250.25 391.61 243.54 395.91 243.21C396.625 243.175 397.34 243.291 398.008 243.551C398.676 243.811 399.282 244.208 399.785 244.718C400.289 245.227 400.68 245.837 400.932 246.508C401.185 247.178 401.293 247.895 401.25 248.61C401.18 251.61 398.67 254.44 396.33 256.12C393.58 258.09 386.14 259.5 386.14 259.51Z" fill="black"/>
</g>
<path d="M197.65 1L210.15 119.79" stroke="#263238" stroke-linecap="round" stroke-linejoin="round"/>
<path d="M235.14 26.24L225.82 28.38L217.29 45.25L203.78 41.39L203.4 45.07L220.2 52.04L226.21 43.7V58.25L244.25 59.03L247.94 42.54L254.53 48.36V63.68H258.41L260.74 44.48L250.46 27.8L235.14 26.24Z" fill="white" stroke="#263238" stroke-linecap="round" stroke-linejoin="round"/>
<path d="M226.21 43.7L226.07 35.49" stroke="#263238" stroke-linecap="round" stroke-linejoin="round"/>
<path d="M235 31.6399L237.53 36.3899C237.53 36.3899 244.53 38.6099 245.77 38.9199C247.01 39.2299 250.84 37.9699 254 37.3399C257.16 36.7099 267.31 41.7699 267.31 41.7699L276.18 42.0899L271.43 36.3899L254.32 33.8499L245.45 36.7099L239.45 35.12L240.73 32.6399L237.88 28.2L235 31.6399Z" fill="black" stroke="#263238" stroke-linecap="round" stroke-linejoin="round"/>
<path d="M235.91 24.8801C235.395 24.7827 234.862 24.8916 234.426 25.1834C233.99 25.4752 233.686 25.9265 233.58 26.4401C233.2 28.3801 232.81 33.2301 232.81 33.2301L237.46 31.8701L242.9 34.2001C242.9 34.2001 244.64 29.1501 243.67 27.4101C242.7 25.6701 238.24 23.3301 235.91 24.8801Z" fill="white" stroke="#263238" stroke-linecap="round" stroke-linejoin="round"/>
<path d="M234.94 22.1699C234.94 22.1699 235.52 27.5999 235.72 29.5399C235.92 31.4799 237.08 34.3899 237.85 33.8099C238.62 33.2299 241.34 27.8099 241.34 27.8099L242.7 24.1299L234.94 22.1699Z" fill="white" stroke="#263238" stroke-linecap="round" stroke-linejoin="round"/>
<path d="M235 14.2399C235 14.2399 233.3 14.0899 233.3 16.8699C233.3 19.6499 234.53 19.7999 234.53 19.7999L235 14.2399Z" fill="white" stroke="#263238" stroke-linecap="round" stroke-linejoin="round"/>
<path d="M246.37 16.5601C246.59 16.5718 246.805 16.6318 247 16.7355C247.195 16.8393 247.364 16.9845 247.497 17.1609C247.629 17.3372 247.721 17.5404 247.767 17.7562C247.812 17.9721 247.81 18.1952 247.76 18.4101C247.45 20.1101 244.52 22.4101 244.52 22.4101L246.37 16.5601Z" fill="white" stroke="#263238" stroke-linecap="round" stroke-linejoin="round"/>
<path d="M240.76 8.63991C240.76 8.63991 237.66 7.85991 235.91 11.5499C234.16 15.2399 234.55 19.6999 234.91 22.2199C235.27 24.7399 237.63 25.8999 239.96 25.8999C242.29 25.8999 245.77 21.0599 246.55 17.3699C247.33 13.6799 246.77 8.63991 240.76 8.63991Z" fill="white" stroke="#263238" stroke-linecap="round" stroke-linejoin="round"/>
<path d="M200.03 39.2401L200.8 45.0601L204.29 45.4501L203.71 38.8501L200.03 39.2401Z" fill="white" stroke="#263238" stroke-linecap="round" stroke-linejoin="round"/>
<path d="M203.78 39.15L205.19 38.96L205.47 42.06L204.06 42.25L203.78 39.15Z" fill="white" stroke="#263238" stroke-linecap="round" stroke-linejoin="round"/>
<path d="M254.53 63.6799L252.41 66.9999L252.96 70.3299L254.81 70.1499L257.96 69.0399L258.41 63.6799H254.53Z" fill="white" stroke="#263238" stroke-linecap="round" stroke-linejoin="round"/>
<path d="M226.21 58.25L224.84 64.23L209.66 84.21L219.84 112.9L222.43 112.34L220.21 84.95L232.61 71.81L234.09 72.74L234.13 87.4L248.34 111.42L251.3 110.67L244.64 87.54L245.01 62.93L244.25 59.03L226.21 58.25Z" fill="#263238" stroke="#263238" stroke-linecap="round" stroke-linejoin="round"/>
<path d="M219.84 112.9L217.62 116.04C217.62 116.04 214.1 117.71 213.55 118.63C213 119.55 216.55 119.37 216.55 119.37L220.62 119L224.88 116.23L222.47 112.34L219.84 112.9Z" fill="white" stroke="#263238" stroke-linecap="round" stroke-linejoin="round"/>
<path d="M198.18 5.22998C198.18 5.22998 196.32 9.46998 188.64 12.38C180.96 15.29 169.84 16.88 166.93 22.97C164.02 29.06 164.02 28.54 163.49 31.97C163.207 33.975 162.276 35.8326 160.84 37.26C160.84 37.26 163.49 37.53 164.84 35.68C166.19 33.83 166.7 28.53 168.84 27.73C170.98 26.93 174.87 25.64 174.87 25.64C174.87 25.64 171.17 28.82 170.87 30.41C170.57 32 170.34 35.71 169.81 38.09C169.579 39.3912 168.946 40.5873 168 41.51C168 41.51 171.44 41.51 172.5 39.13C173.56 36.75 172.5 33.57 175.94 31.18C179.38 28.79 183.09 29.86 188.94 30.12C194.79 30.38 200.33 26.95 200.33 26.95L198.18 5.22998Z" fill="black" stroke="#263238" stroke-linecap="round" stroke-linejoin="round"/>
<path d="M248.34 111.42L245.79 119.89L252.12 119.64L251.3 110.67L248.34 111.42Z" fill="white" stroke="#263238" stroke-linecap="round" stroke-linejoin="round"/>
<path d="M238.64 16.0699C238.53 16.5699 238.18 16.9199 237.84 16.8499C237.5 16.7799 237.32 16.3099 237.43 15.8499C237.54 15.3899 237.89 14.9999 238.23 15.0699C238.57 15.1399 238.74 15.5699 238.64 16.0699Z" fill="#263238"/>
<path d="M243.27 17.15C243.16 17.65 242.81 18 242.47 17.93C242.13 17.86 241.95 17.39 242.06 16.93C242.17 16.47 242.52 16.08 242.86 16.15C243.2 16.22 243.37 16.64 243.27 17.15Z" fill="#263238"/>
<path d="M240.19 16.71L238.96 20.42H240.97" stroke="#263238" stroke-linecap="round" stroke-linejoin="round"/>
<path d="M237.42 21.5C237.42 21.5 238.5 23.35 241.28 22.27" stroke="#263238" stroke-linecap="round" stroke-linejoin="round"/>
<path d="M237.26 13.4701C237.662 13.2529 238.127 13.1801 238.576 13.2638C239.025 13.3475 239.433 13.5826 239.73 13.9301" stroke="#263238" stroke-linecap="round" stroke-linejoin="round"/>
<path d="M242.05 14.55C242.32 14.4016 242.619 14.3121 242.926 14.2872C243.234 14.2623 243.543 14.3026 243.834 14.4055C244.125 14.5084 244.39 14.6716 244.614 14.8843C244.837 15.0971 245.013 15.3546 245.13 15.64" stroke="#263238" stroke-linecap="round" stroke-linejoin="round"/>
<path d="M234.33 13.01L245.44 11.64C245.44 11.64 244.98 13.49 245.6 13.95C246.22 14.41 246.37 16.58 246.37 16.58L245.91 19.05L248.38 14.73C248.38 14.73 249.15 11.33 248.53 10.25C248.327 9.9241 248.057 9.64499 247.738 9.43121C247.419 9.21744 247.059 9.07388 246.68 9.01004C246.019 8.00958 245.087 7.21788 243.992 6.72739C242.898 6.2369 241.687 6.06787 240.5 6.24004C236.18 6.70004 234.33 8.86004 234.33 10.56V13.01Z" fill="#263238" stroke="#263238" stroke-linecap="round" stroke-linejoin="round"/>
<path d="M226.13 432.84L245.73 320.37L171.75 252.48L198.6 161L169.86 161.64L157.72 172.5L132.35 171.88L128.92 184.25L121.96 183.38L119.56 187.72L107.69 211.42L101.52 235.09L78.5198 263.84L75.9998 331.68L38.9198 385.2L27.2598 432.84H226.13Z" fill="#808080" stroke="#39515E" stroke-linecap="round" stroke-linejoin="round"/>
<path d="M393.06 432.84L368.51 379.01L408.51 405.66V363.01L385 335.16L388.48 303.83L352.78 235.94L351 212.44L338.82 201.12L276.3 205.64L271.84 183.69L231.84 161.06L207.84 219.17L185.73 228.95L201.31 250.31L198.79 267.24L204 293.38L117 312.53C117 312.53 116.13 354.31 116.13 357.79C116.13 361.27 98.7197 381.29 98.7197 381.29L97.9097 432.84H393.06Z" fill="#ABABAB" stroke="#39515E" stroke-linecap="round" stroke-linejoin="round"/>
<path d="M441.51 432.84L431.12 428.29L418.06 400.44L402.39 389.13L395.43 372.59L388.47 359.53L351.27 341.36L357.04 432.84H441.51Z" fill="#CCCCCC" stroke="#39515E" stroke-linecap="round" stroke-linejoin="round"/>
<path d="M52.1497 432.73H98.6597L99.4997 405.66L95.1497 390V348.22L84.7097 346.48L75.9997 356.05L62.0797 363.89L31.9097 432.84H52.1497V432.73Z" fill="#CCCCCC" stroke="#39515E" stroke-linecap="round" stroke-linejoin="round"/>
<path d="M68.2397 387.41L69.2598 383.07" stroke="#39515E" stroke-miterlimit="10"/>
<path d="M52.1499 432.84L58.3499 408.35L64.1999 404.63L67.6199 390.05" stroke="#39515E" stroke-miterlimit="10"/>
<path d="M42.1099 433.1L51.9599 405.16" stroke="#39515E" stroke-miterlimit="10"/>
<path d="M84.8496 358.04L83.8896 362.58" stroke="#39515E" stroke-miterlimit="10"/>
<path d="M87.0798 347.42L85.2598 356.09" stroke="#39515E" stroke-miterlimit="10"/>
<path d="M98.6599 432.73L99.4999 405.66L95.1499 390V348.22L86.4499 403.92L78.6099 406.53L75.9999 422.2L74.3799 432.73H98.6599Z" fill="white" stroke="#39515E" stroke-linecap="round" stroke-linejoin="round"/>
<path d="M247.61 401.86C252.558 401.19 257.396 399.872 262 397.94C265.676 396.441 268.91 394.032 271.4 390.94C271.69 390.55 271.96 390.14 272.22 389.73L265.35 358.73L251.8 346.91L249.54 336.77L236.54 326.63L232.04 342.41L224.71 352.55L224.15 389.74L231.15 403.12C236.659 403.073 242.158 402.652 247.61 401.86V401.86Z" fill="white" stroke="#39515E" stroke-linecap="round" stroke-linejoin="round"/>
<path d="M247.61 401.86L246.23 390.28L250.3 379.31V372.81L249.48 362.65" stroke="#39515E" stroke-miterlimit="10"/>
<path d="M255.86 366.66L258.02 378.9L262.08 379.71L261.27 389.87L262.89 395.16" stroke="#39515E" stroke-miterlimit="10"/>
<path d="M254.36 358.18L255.08 362.26" stroke="#39515E" stroke-miterlimit="10"/>
<path d="M240.95 332.17L244.2 365.49" stroke="#39515E" stroke-miterlimit="10"/>
<path d="M201.25 401.03C210.599 402.451 220.043 403.153 229.5 403.13C231.4 403.13 233.26 403.08 235.09 403.01L234.89 392.55L231.51 388.05V355.93L237.15 350.29L236.58 326.64L229.82 339.04L220.82 346.92L215.18 363.26L206.18 373.97L203.92 385.24L193.22 394.24L188.95 398.79C192.983 399.65 197.083 400.397 201.25 401.03Z" fill="#CCCCCC" stroke="#39515E" stroke-linecap="round" stroke-linejoin="round"/>
<path d="M364.1 432.84L411.35 432.75L350.17 396.09L335.38 360.4L323.19 358.66L312.75 344.74L307.52 349.96L311 380.42L297.95 402.18V416.11L291.86 431.77L321.3 432.84H364.1Z" fill="white" stroke="#39515E" stroke-linecap="round" stroke-linejoin="round"/>
<path d="M340.4 432.78L338.17 420.33L341.68 412.98L340.72 398.61L343.6 401.49L363.08 432.78H340.4Z" fill="#CCCCCC" stroke="#39515E" stroke-linecap="round" stroke-linejoin="round"/>
<path d="M340.72 398.61L354.46 405.32L359.88 412.02L375.53 420.01L386.39 426.72L393.06 432.84L363.08 432.78L340.72 398.61Z" fill="white" stroke="#39515E" stroke-linecap="round" stroke-linejoin="round"/>
<path d="M297.95 402.18V416.11L291.39 432.56L316.24 432.88L311 403.05L321.45 393.48L307.52 349.96L311 380.42L297.95 402.18Z" fill="#CCCCCC" stroke="#39515E" stroke-linecap="round" stroke-linejoin="round"/>
<path d="M323.19 358.66L332.38 378.09L336.44 378.5L339.69 388.25" stroke="#39515E" stroke-miterlimit="10"/>
<path d="M329.36 417.44L330.76 421.98" stroke="#39515E" stroke-miterlimit="10"/>
<path d="M323.85 382.15L326.69 393.13L331.57 401.25L325.88 406.13L328.34 414.12" stroke="#39515E" stroke-miterlimit="10"/>
<path d="M207.74 158.89L187.34 181.2L186.64 140.3L206.95 115.64L207.74 158.89Z" fill="#CCCCCC" stroke="#39515E" stroke-linecap="round" stroke-linejoin="round"/>
<path d="M193.58 248.21L214.44 229.8C215.936 228.502 217.601 227.412 219.39 226.56C221.634 225.495 223.979 224.658 226.39 224.06C229.48 223.308 232.622 222.787 235.79 222.5C239.778 222.132 243.785 221.985 247.79 222.06C257.473 222.188 267.133 223.04 276.69 224.61C284.632 225.925 292.485 227.738 300.2 230.04C307.14 232.11 313.2 234.33 318.43 236.38C323.66 238.43 327.98 240.31 331.48 241.69L304.41 259.24C301.1 257.94 296.99 256.17 292.06 254.24C287.13 252.31 281.38 250.24 274.81 248.24C267.512 246.072 260.084 244.372 252.57 243.15C243.522 241.679 234.376 240.89 225.21 240.79C221.411 240.724 217.612 240.871 213.83 241.23C210.833 241.506 207.862 242.004 204.94 242.72C202.641 243.284 200.406 244.082 198.27 245.1C196.573 245.921 194.996 246.967 193.58 248.21V248.21Z" fill="#CCCCCC" stroke="#39515E" stroke-linecap="round" stroke-linejoin="round"/>
<path d="M260 398.75L236.46 407.75C238.517 406.985 240.488 406.007 242.34 404.83C243.98 403.784 245.457 402.5 246.72 401.02C247.912 399.618 248.834 398.008 249.44 396.27C250.063 394.419 250.354 392.472 250.3 390.52C250.283 387.114 249.238 383.792 247.3 380.99C244.815 377.695 241.641 374.982 238 373.04C232.755 370.175 227.242 367.83 221.54 366.04C214.74 363.75 206.54 361.49 196.89 359.14C183.747 356.079 170.877 351.945 158.41 346.78C147.151 342.166 136.581 336.021 127 328.52C118.2 321.646 110.952 312.99 105.73 303.12C100.435 292.631 97.6938 281.039 97.73 269.29C97.6799 264.518 98.0144 259.749 98.73 255.03C99.4132 250.493 100.484 246.024 101.93 241.67C103.354 237.404 105.151 233.271 107.3 229.32C109.465 225.366 111.972 221.608 114.79 218.09L131 197.76C125.022 205.197 120.423 213.643 117.42 222.7C115.874 227.303 114.73 232.03 114 236.83C113.259 241.828 112.925 246.878 113 251.93C112.992 264.386 115.921 276.668 121.55 287.78C127.088 298.243 134.768 307.422 144.09 314.72C153.57 322.35 164.84 328.72 177.37 334.05C190.561 339.535 204.18 343.93 218.09 347.19C228.34 349.69 236.97 352.1 244.16 354.53C250.196 356.448 256.027 358.956 261.57 362.02C266.05 364.63 269.26 367.39 271.38 370.43C273.446 373.391 274.566 376.909 274.59 380.52C274.657 382.588 274.352 384.65 273.69 386.61C273.053 388.439 272.083 390.134 270.83 391.61C269.493 393.165 267.933 394.514 266.2 395.61C264.25 396.872 262.171 397.924 260 398.75V398.75Z" fill="#CCCCCC" stroke="#39515E" stroke-linecap="round" stroke-linejoin="round"/>
<path d="M144.09 314.72C153.57 322.35 164.84 328.72 177.37 334.05C190.561 339.535 204.18 343.93 218.09 347.19C228.34 349.69 236.97 352.1 244.16 354.53C250.196 356.447 256.027 358.956 261.57 362.02C266.05 364.63 269.26 367.39 271.38 370.43C273.446 373.391 274.566 376.909 274.59 380.52C274.755 384.267 273.617 387.957 271.37 390.96C268.88 394.052 265.646 396.461 261.97 397.96C257.375 399.889 252.547 401.207 247.61 401.88C241.613 402.748 235.56 403.172 229.5 403.15C220.043 403.173 210.599 402.471 201.25 401.05C192.272 399.689 183.386 397.782 174.64 395.34C166.14 392.97 158.05 390.23 150.51 387.34C142.97 384.45 135.97 381.34 129.66 378.34L116.88 432.64H346.57C353.727 424.668 359.327 415.425 363.08 405.39C367.013 394.698 368.84 383.346 368.46 371.96C368.12 359.79 366.27 348.96 362.64 339.25C359.028 329.543 353.405 320.71 346.14 313.33C338.67 305.67 329.14 298.92 317.28 292.9C305.42 286.88 291.14 281.55 274.28 276.74C263.426 273.58 253.936 270.547 245.81 267.64C238.871 265.239 232.103 262.372 225.55 259.06C220.15 256.23 216.1 253.42 213.4 250.54C210.7 247.66 209.32 244.73 209.26 241.65C209.184 239.131 209.726 236.631 210.84 234.37C212.228 231.741 214.301 229.537 216.84 227.99C220.487 225.792 224.507 224.283 228.7 223.54C235.018 222.358 241.445 221.858 247.87 222.05C257.553 222.178 267.214 223.03 276.77 224.6C284.713 225.915 292.565 227.729 300.28 230.03C307.22 232.1 313.28 234.32 318.51 236.37C323.74 238.42 328.06 240.3 331.56 241.68L346.44 174.68C341.76 172.68 336.73 170.68 331.22 168.78C325.71 166.88 319.71 165.1 313.12 163.49C306.53 161.88 299.33 160.49 291.41 159.28C283.49 158.07 274.82 157.21 265.32 156.65L264.45 117.03L207 115.64L207.79 158.89C193.819 160.818 180.187 164.692 167.29 170.4C156.185 175.306 146.049 182.161 137.36 190.64C129.41 198.49 123.161 207.891 119 218.26C114.803 228.979 112.764 240.421 113 251.93C112.992 264.386 115.921 276.668 121.55 287.78C127.088 298.243 134.768 307.422 144.09 314.72V314.72Z" fill="white" stroke="#39515E" stroke-linecap="round" stroke-linejoin="round"/>
<path d="M116.88 432.64L129.66 378.31L113.29 388.55L102.87 432.64H116.88Z" fill="#CCCCCC" stroke="#39515E" stroke-linecap="round" stroke-linejoin="round"/>
<path d="M393.15 419.53C392.143 419.34 391.101 419.544 390.24 420.1L394.72 422.79C394.84 422.473 394.893 422.136 394.878 421.798C394.863 421.46 394.78 421.129 394.633 420.824C394.486 420.519 394.279 420.247 394.024 420.025C393.769 419.802 393.472 419.634 393.15 419.53V419.53Z" fill="#263238"/>
<path d="M394.41 384.13C394.41 384.13 395.01 381.61 395.03 381.45C395.23 379.56 394.5 375.78 392.55 374.91C392.222 374.775 391.869 374.711 391.515 374.722C391.16 374.733 390.812 374.819 390.493 374.974C390.174 375.129 389.891 375.349 389.663 375.621C389.435 375.892 389.267 376.209 389.17 376.55C388.7 377.98 389.41 379.69 390.22 380.86C391.18 382.24 394.41 384.12 394.41 384.13Z" fill="#263238"/>
<path d="M424.06 399.51C425.28 398.04 426.75 394.51 425.6 392.69C425.402 392.396 425.144 392.147 424.843 391.96C424.541 391.773 424.204 391.651 423.852 391.604C423.501 391.557 423.143 391.585 422.803 391.686C422.463 391.787 422.149 391.958 421.88 392.19C421.339 392.734 420.925 393.391 420.665 394.113C420.406 394.835 420.309 395.606 420.38 396.37C420.38 398.04 422.07 401.37 422.08 401.37C422.09 401.37 424 399.64 424.06 399.51Z" fill="#263238"/>
<path d="M382.86 413.41C384.273 414.312 385.818 414.987 387.44 415.41C387.31 416.15 387.18 416.89 387.02 417.6C387.02 417.78 386.93 417.96 386.89 418.15L387.83 418.71C387.89 418.42 387.95 418.12 388.02 417.83C388.25 416.66 388.44 415.47 388.59 414.27C390.195 414.862 391.882 415.199 393.59 415.27C394.363 415.249 395.121 415.06 395.812 414.714C396.504 414.369 397.11 413.876 397.59 413.27C397.782 412.97 397.909 412.633 397.962 412.281C398.016 411.93 397.995 411.57 397.9 411.227C397.806 410.884 397.641 410.564 397.415 410.289C397.189 410.014 396.908 409.789 396.59 409.63C394.66 408.72 391.32 410.63 390.01 412.02C389.93 412.11 389.11 413.21 388.67 413.83C388.76 413.1 388.85 412.38 388.92 411.64C389.11 409.52 389.24 407.36 389.37 405.21C389.37 404.56 389.46 403.9 389.51 403.21C389.79 403.31 393.07 404.41 394.67 404.21C396.08 404.06 397.85 403.48 398.67 402.21C398.862 401.911 398.989 401.575 399.042 401.224C399.095 400.873 399.074 400.514 398.98 400.172C398.886 399.829 398.72 399.511 398.495 399.236C398.269 398.962 397.988 398.738 397.67 398.58C395.74 397.67 392.4 399.58 391.09 400.97C391 401.08 389.81 402.67 389.53 403.08C389.63 401.64 389.75 400.2 389.92 398.78C390.135 396.871 390.469 394.977 390.92 393.11C391.05 393.11 394.48 394.32 396.11 394.11C397.53 393.96 399.29 393.38 400.11 392.11C400.302 391.811 400.429 391.475 400.482 391.124C400.535 390.773 400.514 390.414 400.42 390.072C400.326 389.729 400.16 389.411 399.935 389.136C399.709 388.862 399.428 388.638 399.11 388.48C397.18 387.56 393.84 389.48 392.54 390.87C392.43 390.98 391.16 392.69 390.95 393.01C390.95 392.9 391 392.79 391.03 392.68C391.554 390.823 392.24 389.016 393.08 387.28C393.53 386.28 394.02 385.41 394.51 384.55C395.13 384.83 397.96 386.09 399.44 386.1C400.92 386.11 402.68 385.73 403.6 384.53C403.825 384.255 403.99 383.937 404.084 383.594C404.177 383.252 404.198 382.894 404.144 382.543C404.091 382.192 403.964 381.856 403.772 381.558C403.58 381.259 403.327 381.004 403.03 380.81C401.22 379.69 397.69 381.23 396.24 382.47C396.16 382.54 395.43 383.31 394.91 383.88C395.14 383.49 395.37 383.09 395.6 382.72C396.45 381.35 397.31 380.15 398.08 379.08C398.52 378.48 398.93 377.95 399.32 377.45C401.046 377.416 402.756 377.116 404.39 376.56C405.65 375.91 407.09 374.73 407.39 373.25C407.457 372.906 407.452 372.552 407.376 372.21C407.299 371.869 407.152 371.547 406.944 371.264C406.736 370.982 406.472 370.747 406.169 370.572C405.865 370.397 405.528 370.288 405.18 370.25C403.05 370.1 400.63 373.09 399.91 374.85C399.85 375.01 399.15 377.5 399.19 377.5H399.24C398.85 377.97 398.44 378.5 398.01 379.04C397.21 380.09 396.32 381.28 395.44 382.64C394.48 384.097 393.602 385.606 392.81 387.16C391.916 388.9 391.18 390.718 390.61 392.59C390.61 392.59 390.61 392.64 390.61 392.66C390.61 392.03 390.52 390.29 390.5 390.15C390.19 388.27 388.5 384.82 386.38 384.5C386.028 384.458 385.671 384.49 385.332 384.594C384.994 384.699 384.68 384.873 384.413 385.105C384.145 385.338 383.929 385.624 383.779 385.945C383.629 386.266 383.547 386.615 383.54 386.97C383.47 388.48 384.61 389.97 385.7 390.86C386.94 391.86 390.29 392.86 390.56 392.86C390.029 394.778 389.625 396.729 389.35 398.7C389.18 399.85 389.05 401.01 388.94 402.18C388.94 401.64 388.88 401.18 388.87 401.09C388.56 399.21 386.87 395.75 384.75 395.44C384.398 395.396 384.041 395.427 383.702 395.531C383.363 395.635 383.05 395.809 382.783 396.042C382.516 396.275 382.301 396.562 382.152 396.884C382.004 397.206 381.925 397.555 381.92 397.91C381.85 399.41 382.99 400.91 384.08 401.79C385.539 402.693 387.127 403.368 388.79 403.79C388.79 404.23 388.7 404.68 388.67 405.13C388.48 407.28 388.31 409.42 388.07 411.52C387.99 412.26 387.88 412.99 387.77 413.71C387.77 413.23 387.77 412.83 387.77 412.77C387.46 410.89 385.77 407.44 383.65 407.12C383.298 407.076 382.941 407.107 382.602 407.211C382.263 407.315 381.95 407.489 381.683 407.722C381.416 407.955 381.201 408.242 381.052 408.564C380.904 408.886 380.825 409.235 380.82 409.59C380.63 411.03 381.77 412.5 382.86 413.41Z" fill="#263238"/>
<path d="M438.71 395.69C437.02 394.38 433.35 395.54 431.78 396.62C431.64 396.71 429.68 398.41 429.72 398.43C429.14 398.6 428.52 398.8 427.84 399.03C426.6 399.47 425.2 399.97 423.72 400.62C422.11 401.296 420.544 402.071 419.03 402.94C417.325 403.898 415.709 405.006 414.2 406.25L414.15 406.3C414.48 405.77 415.38 404.3 415.43 404.15C416.21 402.41 416.7 398.59 415.11 397.15C414.841 396.92 414.526 396.75 414.186 396.65C413.846 396.549 413.489 396.522 413.138 396.569C412.787 396.616 412.45 396.737 412.149 396.923C411.848 397.11 411.589 397.357 411.39 397.65C410.5 398.86 410.64 400.71 411.04 402.08C411.51 403.62 413.79 406.24 413.98 406.45C412.472 407.748 411.058 409.151 409.75 410.65C408.97 411.52 408.22 412.41 407.48 413.32C407.76 412.86 408 412.44 408.03 412.38C408.81 410.64 409.3 406.82 407.71 405.38C407.441 405.15 407.126 404.98 406.786 404.88C406.446 404.779 406.089 404.752 405.738 404.799C405.387 404.847 405.05 404.967 404.749 405.153C404.448 405.34 404.189 405.587 403.99 405.88C403.1 407.09 403.24 408.95 403.65 410.31C404.369 411.864 405.324 413.297 406.48 414.56L405.64 415.56C404.3 417.26 402.97 418.95 401.64 420.56C401.17 421.13 400.64 421.68 400.19 422.22L400.66 421.4C401.44 419.67 401.93 415.85 400.34 414.4C400.071 414.17 399.756 414 399.416 413.9C399.076 413.799 398.719 413.772 398.368 413.819C398.017 413.866 397.68 413.987 397.379 414.173C397.078 414.36 396.819 414.607 396.62 414.9C395.73 416.11 395.87 417.96 396.28 419.33C396.948 420.904 397.867 422.36 399 423.64L398 424.72L398.88 425.25C399.49 424.62 400.08 423.96 400.67 423.25C401.686 424.616 402.907 425.817 404.29 426.81C404.946 427.211 405.681 427.463 406.445 427.549C407.208 427.636 407.981 427.554 408.71 427.31C409.035 427.17 409.327 426.962 409.566 426.701C409.806 426.44 409.988 426.132 410.1 425.796C410.212 425.46 410.252 425.104 410.218 424.752C410.184 424.399 410.075 424.058 409.9 423.75C408.79 421.92 404.9 421.68 403.1 422.12C402.98 422.12 401.69 422.61 400.98 422.88C401.45 422.32 401.93 421.77 402.39 421.19C403.72 419.53 405.02 417.8 406.32 416.08L407.52 414.52C407.7 414.75 409.84 417.52 411.26 418.22C411.915 418.618 412.648 418.87 413.41 418.956C414.171 419.042 414.943 418.962 415.67 418.72C415.995 418.58 416.287 418.372 416.526 418.111C416.766 417.85 416.948 417.542 417.06 417.206C417.172 416.87 417.213 416.514 417.178 416.162C417.144 415.809 417.035 415.468 416.86 415.16C415.76 413.33 411.92 413.08 410.06 413.52C409.92 413.52 408.06 414.23 407.6 414.42C408.48 413.27 409.37 412.14 410.3 411.05C411.538 409.575 412.874 408.185 414.3 406.89C414.38 407 416.59 409.89 418.05 410.62C419.31 411.28 421.1 411.77 422.46 411.12C422.786 410.981 423.079 410.774 423.319 410.513C423.56 410.253 423.743 409.944 423.856 409.608C423.969 409.272 424.01 408.916 423.977 408.563C423.943 408.21 423.835 407.869 423.66 407.56C422.55 405.73 418.71 405.49 416.86 405.92C416.71 405.92 414.71 406.68 414.35 406.84L414.6 406.6C416.061 405.34 417.63 404.213 419.29 403.23C420.2 402.67 421.1 402.23 421.99 401.75C422.35 402.32 423.99 404.93 425.25 405.75C426.51 406.57 428.16 407.22 429.58 406.75C429.918 406.645 430.231 406.471 430.498 406.238C430.765 406.005 430.979 405.718 431.128 405.397C431.277 405.075 431.357 404.726 431.363 404.372C431.368 404.017 431.299 403.666 431.16 403.34C430.26 401.4 426.47 400.74 424.58 400.97C424.47 400.97 423.44 401.23 422.69 401.42C423.1 401.22 423.51 401.01 423.9 400.83C425.37 400.15 426.75 399.62 427.98 399.16L429.92 398.49C431.377 399.408 432.965 400.099 434.63 400.54C435.386 400.677 436.162 400.647 436.905 400.452C437.648 400.257 438.339 399.901 438.93 399.41C439.176 399.16 439.367 398.861 439.491 398.532C439.614 398.203 439.667 397.852 439.647 397.501C439.626 397.151 439.532 396.808 439.37 396.496C439.209 396.184 438.984 395.91 438.71 395.69Z" fill="#263238"/>
<path d="M387.72 432.8L388.87 433.51L389.58 432.99L389.85 432.79L387.72 432.8Z" fill="#263238"/>
<path d="M56.4099 366.64C56.113 366.833 55.8599 367.086 55.6671 367.383C55.4742 367.68 55.3458 368.014 55.2902 368.364C55.2346 368.714 55.253 369.071 55.3442 369.413C55.4355 369.755 55.5975 370.074 55.8199 370.35C56.5347 371.177 57.534 371.705 58.6199 371.83L60.7699 366.92C59.2599 366.24 57.5199 365.92 56.4099 366.64Z" fill="#263238"/>
<path d="M66.36 360.19C65.6837 360.696 65.2032 361.42 65 362.24L68.77 360.13C68.3987 359.927 67.9802 359.825 67.5569 359.835C67.1337 359.846 66.7207 359.968 66.36 360.19V360.19Z" fill="#263238"/>
<path d="M66.9999 324.45C68.2799 325.53 71.8899 326.51 71.8899 326.51C71.8899 326.51 71.8199 323.93 71.7899 323.77C71.4899 321.89 69.7899 318.43 67.6999 318.1C67.3478 318.053 66.9899 318.082 66.6497 318.184C66.3095 318.285 65.9948 318.458 65.7263 318.691C65.4579 318.923 65.2419 319.21 65.0925 319.532C64.9432 319.855 64.8639 320.205 64.8599 320.56C64.8199 322.06 65.9999 323.53 66.9999 324.45Z" fill="#263238"/>
<path d="M40.67 335.79C40.67 335.79 39.18 333.68 39.07 333.56C37.79 332.16 34.47 330.2 32.53 331.09C32.2125 331.247 31.9318 331.47 31.7062 331.743C31.4806 332.017 31.3152 332.335 31.2209 332.676C31.1265 333.018 31.1052 333.376 31.1585 333.726C31.2118 334.076 31.3384 334.412 31.53 334.71C32.29 336.01 34.04 336.61 35.46 336.78C37.11 336.97 40.67 335.8 40.67 335.79Z" fill="#263238"/>
<path d="M38.79 327.81C38.89 328.41 39 329.05 39.13 329.75C39.39 331.04 39.69 332.49 40.13 334.05C40.5755 335.748 41.1232 337.418 41.77 339.05C42.484 340.87 43.3574 342.623 44.38 344.29V344.35C43.91 343.95 42.54 342.85 42.38 342.78C40.77 341.78 37.05 340.78 35.38 342.12C35.1152 342.356 34.9033 342.646 34.7582 342.97C34.6131 343.294 34.5381 343.645 34.5381 344C34.5381 344.355 34.6131 344.706 34.7582 345.03C34.9033 345.354 35.1152 345.643 35.38 345.88C36.46 346.93 38.31 347.05 39.72 346.88C41.31 346.64 44.22 344.73 44.45 344.58C45.5404 346.248 46.7362 347.844 48.03 349.36C48.78 350.24 49.56 351.11 50.36 351.97L49.5 351.29C47.89 350.29 44.17 349.29 42.5 350.64C42.2366 350.877 42.0259 351.167 41.8817 351.491C41.7376 351.815 41.6631 352.165 41.6631 352.52C41.6631 352.874 41.7376 353.225 41.8817 353.549C42.0259 353.873 42.2366 354.163 42.5 354.4C43.1106 354.865 43.8154 355.19 44.565 355.355C45.3146 355.519 46.091 355.517 46.84 355.35C48.4796 354.851 50.034 354.106 51.45 353.14C51.76 353.46 52.06 353.79 52.37 354.14C53.86 355.7 55.37 357.25 56.77 358.82C57.27 359.37 57.77 359.93 58.22 360.49L57.47 359.91C55.86 358.91 52.14 357.91 50.47 359.25C50.2066 359.487 49.9959 359.777 49.8517 360.101C49.7076 360.425 49.6331 360.775 49.6331 361.13C49.6331 361.484 49.7076 361.835 49.8517 362.159C49.9959 362.483 50.2066 362.773 50.47 363.01C51.55 364.06 53.41 364.18 54.81 364.01C56.4081 363.532 57.9227 362.811 59.3 361.87C59.77 362.45 60.24 363.04 60.67 363.64C60.95 364.05 61.25 364.42 61.51 364.85V364.91L61.89 364.05L62.11 363.92L61.46 363.04C60.74 362.09 59.97 361.16 59.17 360.25C60.6523 359.429 62.0011 358.387 63.17 357.16C63.657 356.565 64.0086 355.872 64.2003 355.127C64.392 354.383 64.4192 353.606 64.28 352.85C64.1856 352.509 64.0205 352.191 63.7952 351.918C63.57 351.645 63.2897 351.422 62.9727 351.265C62.6558 351.107 62.3091 351.018 61.9554 351.004C61.6017 350.989 61.2489 351.049 60.92 351.18C58.92 352.02 58.18 355.79 58.36 357.68C58.36 357.8 58.65 359.15 58.82 359.89C58.33 359.34 57.82 358.79 57.35 358.25C55.88 356.7 54.35 355.18 52.83 353.65L51.45 352.25C51.7 352.1 54.7 350.37 55.63 349.06C56.1796 348.476 56.5887 347.774 56.8261 347.008C57.0635 346.242 57.123 345.432 57 344.64C56.9054 344.299 56.7402 343.981 56.5151 343.708C56.2901 343.434 56.0101 343.211 55.6934 343.053C55.3767 342.895 55.0303 342.805 54.6766 342.788C54.3229 342.772 53.9697 342.831 53.64 342.96C51.64 343.8 50.9 347.57 51.08 349.47C51.08 349.61 51.49 351.55 51.62 352.04C50.62 351.04 49.62 349.96 48.62 348.9C47.3347 347.467 46.1454 345.95 45.06 344.36C45.18 344.29 48.32 342.49 49.27 341.16C49.7568 340.567 50.1083 339.875 50.3 339.133C50.4918 338.39 50.5191 337.614 50.38 336.86C50.2903 336.513 50.1278 336.188 49.9033 335.909C49.6788 335.629 49.3974 335.4 49.0778 335.238C48.7582 335.075 48.4077 334.982 48.0494 334.965C47.6912 334.949 47.3335 335.008 47 335.14C45 335.98 44.26 339.75 44.44 341.65C44.44 341.8 44.89 343.88 44.99 344.25L44.79 343.98C43.7459 342.355 42.8458 340.642 42.1 338.86C41.68 337.86 41.33 336.92 41.01 335.98C42.6158 335.324 44.1102 334.423 45.44 333.31C45.9864 332.773 46.4091 332.124 46.6786 331.407C46.948 330.69 47.0577 329.923 47 329.16C46.9388 328.813 46.8059 328.483 46.6099 328.191C46.4139 327.899 46.159 327.65 45.8616 327.462C45.5642 327.274 45.2308 327.15 44.8827 327.098C44.5346 327.046 44.1795 327.067 43.84 327.16C41.84 327.78 40.62 331.44 40.58 333.35C40.58 333.45 40.68 334.51 40.76 335.28C40.63 334.85 40.48 334.41 40.35 334C39.88 332.46 39.55 331 39.27 329.73C39.11 329 38.98 328.34 38.87 327.73C39.9847 326.414 40.8887 324.933 41.55 323.34C41.793 322.612 41.8732 321.84 41.7851 321.078C41.697 320.316 41.4426 319.583 41.04 318.93C40.8293 318.645 40.5608 318.407 40.252 318.233C39.9433 318.059 39.6012 317.952 39.2482 317.919C38.8953 317.886 38.5393 317.927 38.2036 318.041C37.8679 318.155 37.56 318.339 37.3 318.58C35.77 320.07 36.4 323.86 37.3 325.58C37.36 325.64 38.77 327.84 38.79 327.81Z" fill="#263238"/>
<path d="M65.1901 335.22C66.6501 335.89 70.1301 335.91 70.4101 335.92C70.3885 337.925 70.5021 339.93 70.7501 341.92C70.8901 343.07 71.0701 344.23 71.2601 345.38C71.0901 344.87 70.9401 344.38 70.9101 344.38C70.1301 342.64 67.5901 339.75 65.4701 339.99C65.119 340.04 64.7822 340.162 64.4816 340.351C64.1811 340.539 63.9234 340.788 63.7254 341.082C63.5274 341.377 63.3934 341.709 63.3322 342.058C63.271 342.408 63.2839 342.766 63.3701 343.11C63.6901 344.58 65.1701 345.7 66.4701 346.3C68.1106 346.793 69.8174 347.029 71.5301 347C71.6101 347.44 71.6801 347.88 71.7601 348.32C72.1401 350.45 72.5301 352.56 72.8501 354.65C72.9601 355.39 73.0401 356.12 73.1301 356.85L72.8301 355.95C72.0401 354.21 69.5001 351.32 67.3801 351.56C67.0335 351.61 66.7012 351.732 66.4043 351.918C66.1074 352.104 65.8525 352.349 65.6558 352.639C65.4592 352.929 65.3251 353.256 65.2621 353.601C65.1991 353.945 65.2087 354.299 65.2901 354.64C65.6101 356.11 67.0901 357.23 68.3801 357.83C69.4804 358.217 70.6343 358.429 71.8001 358.46L74.1301 357.15L75.9701 356.15L81.0001 350.64C80.8863 350.597 80.7693 350.564 80.6501 350.54C78.5501 350.16 75.8201 352.87 74.9201 354.54C74.9201 354.65 74.3601 355.93 74.0901 356.63C73.9901 355.91 73.8901 355.19 73.7601 354.46C73.4001 352.36 72.9601 350.25 72.5401 348.13C72.4001 347.49 72.2801 346.84 72.1601 346.19C72.4501 346.19 75.9101 346.42 77.4001 345.85C78.7301 345.34 80.2901 344.32 80.7001 342.85C80.8034 342.513 80.8347 342.158 80.7922 341.808C80.7497 341.458 80.6342 341.121 80.4533 340.818C80.2723 340.516 80.0299 340.255 79.7417 340.052C79.4535 339.849 79.1259 339.708 78.7801 339.64C76.6801 339.26 73.9601 341.97 73.0601 343.64C72.9901 343.77 72.2601 345.64 72.0601 346.09C71.7901 344.66 71.5301 343.24 71.3301 341.83C71.0473 339.926 70.8903 338.005 70.8601 336.08C71.0001 336.08 74.6101 336.32 76.1401 335.74C76.8754 335.51 77.5517 335.123 78.1217 334.605C78.6917 334.087 79.1417 333.45 79.4401 332.74C79.5502 332.403 79.5881 332.047 79.5513 331.695C79.5144 331.342 79.4037 331.002 79.2263 330.695C79.0489 330.388 78.8088 330.122 78.5217 329.915C78.2346 329.707 77.9069 329.562 77.5601 329.49C75.4601 329.1 72.7301 331.82 71.8301 333.49C71.7601 333.62 70.9801 335.6 70.8301 335.97C70.8301 335.86 70.8301 335.74 70.8301 335.63C70.8599 333.7 71.054 331.777 71.4101 329.88C71.6001 328.83 71.8401 327.88 72.0901 326.88C72.7601 326.99 75.8201 327.47 77.2501 327.09C78.6801 326.71 80.2501 325.89 80.8601 324.5C81.0055 324.177 81.0815 323.827 81.0832 323.473C81.0849 323.119 81.0122 322.769 80.8699 322.444C80.7275 322.12 80.5187 321.829 80.2569 321.591C79.9951 321.352 79.6862 321.171 79.3501 321.06C77.3501 320.45 74.3501 322.85 73.2201 324.42C73.1601 324.5 72.6601 325.42 72.3001 326.12C72.4201 325.69 72.5401 325.24 72.6601 324.83C73.1301 323.29 73.6601 321.9 74.1101 320.67C74.3901 319.98 74.6501 319.36 74.8901 318.78C75.6101 318.54 78.4701 317.58 79.5501 316.6C80.6301 315.62 81.6901 314.13 81.5501 312.6C81.5308 312.246 81.4372 311.899 81.2754 311.584C81.1136 311.268 80.8872 310.99 80.6109 310.767C80.3346 310.545 80.0146 310.383 79.6716 310.292C79.3286 310.201 78.9704 310.183 78.6201 310.24C76.5201 310.64 74.9601 314.16 74.7201 316.05C74.7201 316.22 74.7201 318.81 74.7201 318.8C74.4701 319.36 74.2101 319.95 73.9301 320.61C73.4401 321.83 72.9301 323.21 72.3901 324.75C71.8378 326.406 71.3804 328.092 71.0201 329.8C70.6426 331.725 70.4352 333.679 70.4001 335.64V335.71C70.2301 335.11 69.6901 333.44 69.6401 333.32C68.8501 331.58 66.3101 328.69 64.1901 328.93C63.8392 328.979 63.5026 329.102 63.2024 329.291C62.9022 329.479 62.6451 329.728 62.4478 330.023C62.2506 330.317 62.1177 330.65 62.0578 330.999C61.9978 331.349 62.0123 331.707 62.1001 332.05C62.4201 333.5 63.9001 334.64 65.1901 335.22Z" fill="#263238"/>
<path d="M210.22 357.4C209.869 357.449 209.532 357.572 209.232 357.761C208.932 357.949 208.675 358.198 208.478 358.493C208.28 358.787 208.147 359.12 208.088 359.469C208.028 359.819 208.042 360.177 208.13 360.52C208.38 361.246 208.786 361.907 209.32 362.459C209.854 363.01 210.503 363.437 211.22 363.71C212.204 364.064 213.235 364.266 214.28 364.31L215.17 363.25L215.67 361.8C214.88 360.05 212.34 357.16 210.22 357.4Z" fill="#263238"/>
<path d="M199.25 372.51C198.953 372.703 198.7 372.956 198.507 373.253C198.315 373.55 198.186 373.884 198.131 374.234C198.075 374.583 198.093 374.941 198.185 375.283C198.276 375.625 198.438 375.944 198.66 376.22C199.56 377.43 201.38 377.82 202.8 377.82C203.73 377.752 204.644 377.543 205.51 377.2L206.09 374.28L206.03 374.22C204.59 372.97 201.07 371.41 199.25 372.51Z" fill="#263238"/>
<path d="M209.2 366.11C207.57 367.11 207.25 370.33 207.54 372.31L212.33 366.62C211.952 366.179 211.431 365.887 210.858 365.793C210.285 365.7 209.698 365.812 209.2 366.11V366.11Z" fill="#263238"/>
<path d="M194.43 358.96C194.74 359.28 195.04 359.61 195.35 359.96C196.84 361.52 198.35 363.07 199.75 364.64C200.25 365.19 200.75 365.75 201.2 366.31L200.45 365.73C198.84 364.73 195.12 363.73 193.45 365.07C193.187 365.307 192.976 365.597 192.832 365.921C192.688 366.245 192.613 366.596 192.613 366.95C192.613 367.305 192.688 367.655 192.832 367.979C192.976 368.303 193.187 368.593 193.45 368.83C194.53 369.88 196.39 370 197.79 369.83C199.388 369.353 200.903 368.631 202.28 367.69C202.75 368.28 203.22 368.86 203.65 369.46C203.93 369.87 204.23 370.24 204.49 370.67L205.28 371.91C205.64 372.53 206.01 373.15 206.36 373.76L207.13 372.85C206.83 372.35 206.52 371.85 206.19 371.32L205.37 370.09C205.11 369.68 204.78 369.27 204.48 368.86C203.76 367.86 202.99 366.98 202.19 366.07C203.672 365.249 205.021 364.207 206.19 362.98C206.677 362.385 207.029 361.692 207.221 360.947C207.412 360.203 207.439 359.426 207.3 358.67C207.211 358.331 207.053 358.014 206.834 357.739C206.616 357.465 206.343 357.239 206.032 357.076C205.722 356.913 205.381 356.817 205.031 356.794C204.681 356.77 204.33 356.82 204 356.94C202 357.78 201.26 361.55 201.44 363.44C201.44 363.56 201.73 364.91 201.9 365.65C201.41 365.1 200.9 364.55 200.43 364.02C198.96 362.47 197.43 360.94 195.91 359.41L194.53 358.01C194.78 357.86 197.78 356.13 198.71 354.82C199.198 354.228 199.549 353.536 199.741 352.793C199.933 352.05 199.96 351.274 199.82 350.52C199.726 350.179 199.56 349.861 199.335 349.588C199.11 349.315 198.83 349.092 198.514 348.933C198.197 348.775 197.851 348.685 197.497 348.669C197.143 348.653 196.79 348.711 196.46 348.84C194.46 349.68 193.72 353.45 193.9 355.35C193.9 355.49 194.31 357.43 194.44 357.92C193.44 356.92 192.44 355.84 191.44 354.78C190.155 353.347 188.966 351.83 187.88 350.24C188 350.17 191.14 348.37 192.09 347.04C192.577 346.447 192.929 345.755 193.12 345.013C193.312 344.27 193.339 343.494 193.2 342.74C193.106 342.399 192.94 342.081 192.715 341.808C192.49 341.535 192.21 341.312 191.894 341.153C191.577 340.995 191.231 340.905 190.877 340.889C190.523 340.873 190.17 340.931 189.84 341.06C187.84 341.9 187.1 345.67 187.28 347.57C187.28 347.72 187.73 349.8 187.83 350.17L187.63 349.9C186.586 348.275 185.686 346.562 184.94 344.78C184.52 343.78 184.17 342.84 183.85 341.9C185.454 341.244 186.948 340.347 188.28 339.24C189.23 338.17 190.14 336.56 189.85 335.08C189.789 334.733 189.656 334.403 189.46 334.111C189.264 333.819 189.009 333.571 188.712 333.382C188.414 333.194 188.081 333.07 187.733 333.018C187.385 332.966 187.03 332.987 186.69 333.08C184.69 333.7 183.47 337.37 183.43 339.27C183.43 339.37 183.53 340.43 183.61 341.2C183.48 340.77 183.33 340.33 183.2 339.92C182.73 338.38 182.4 336.92 182.12 335.65C181.96 334.92 181.83 334.26 181.72 333.65C182.835 332.334 183.739 330.853 184.4 329.26C184.643 328.532 184.723 327.76 184.635 326.998C184.547 326.236 184.293 325.503 183.89 324.85C183.679 324.565 183.411 324.328 183.102 324.153C182.793 323.979 182.451 323.872 182.098 323.839C181.745 323.806 181.389 323.848 181.054 323.962C180.718 324.075 180.41 324.259 180.15 324.5C178.62 325.99 179.25 329.79 180.15 331.5C180.23 331.65 181.64 333.82 181.66 333.79C181.76 334.39 181.87 335.03 182 335.73C182.26 337.02 182.56 338.47 183 340.03C183.446 341.728 183.993 343.398 184.64 345.03C185.356 346.853 186.229 348.609 187.25 350.28C187.254 350.296 187.254 350.314 187.25 350.33C186.78 349.93 185.41 348.83 185.3 348.76C183.69 347.76 179.97 346.76 178.3 348.11C178.037 348.346 177.827 348.635 177.682 348.959C177.538 349.282 177.464 349.631 177.464 349.985C177.464 350.339 177.538 350.689 177.682 351.012C177.827 351.335 178.037 351.624 178.3 351.86C179.38 352.92 181.23 353.03 182.64 352.86C184.23 352.62 187.14 350.71 187.37 350.56C188.461 352.228 189.656 353.825 190.95 355.34C191.7 356.22 192.48 357.09 193.28 357.95L192.42 357.27C190.81 356.27 187.09 355.27 185.42 356.62C185.155 356.856 184.943 357.146 184.798 357.47C184.653 357.794 184.578 358.145 184.578 358.5C184.578 358.855 184.653 359.206 184.798 359.53C184.943 359.854 185.155 360.144 185.42 360.38C186.49 361.43 188.35 361.55 189.75 361.33C191.424 360.788 193.003 359.988 194.43 358.96V358.96Z" fill="#263238"/>
<path d="M209.88 330.37C211.16 331.45 214.77 332.43 214.77 332.43C214.77 332.43 214.7 329.85 214.67 329.69C214.37 327.81 212.67 324.35 210.58 324.02C210.228 323.975 209.871 324.005 209.531 324.107C209.192 324.21 208.878 324.383 208.61 324.615C208.342 324.847 208.126 325.133 207.976 325.454C207.826 325.776 207.745 326.125 207.74 326.48C207.66 327.98 208.79 329.45 209.88 330.37Z" fill="#263238"/>
<path d="M183.51 341.72C183.51 341.72 182.02 339.6 181.91 339.48C180.63 338.08 177.31 336.12 175.37 337.01C175.052 337.168 174.772 337.39 174.546 337.664C174.32 337.937 174.155 338.255 174.061 338.597C173.966 338.938 173.945 339.296 173.998 339.646C174.052 339.997 174.178 340.332 174.37 340.63C175.13 341.93 176.88 342.53 178.3 342.7C180 342.89 183.51 341.72 183.51 341.72Z" fill="#263238"/>
<path d="M208 341.14C209.46 341.81 212.94 341.84 213.22 341.84C213.201 343.829 213.314 345.816 213.56 347.79C213.7 348.94 213.88 350.1 214.07 351.26C213.9 350.74 213.75 350.26 213.72 350.26C212.94 348.52 210.4 345.63 208.28 345.87C207.929 345.92 207.592 346.042 207.292 346.231C206.991 346.419 206.733 346.668 206.535 346.962C206.337 347.256 206.203 347.589 206.142 347.938C206.081 348.288 206.094 348.646 206.18 348.99C206.5 350.46 207.98 351.58 209.28 352.18C210.921 352.673 212.627 352.909 214.34 352.88C214.42 353.32 214.49 353.76 214.57 354.2C214.95 356.33 215.34 358.45 215.66 360.53C215.66 360.84 215.73 361.15 215.77 361.46L216.4 359.66C216.06 357.8 215.68 355.93 215.31 354.06C215.18 353.42 215.05 352.77 214.93 352.13C216.294 352.212 217.662 352.182 219.02 352.04L220.78 346.95L222.17 345.74C221.987 345.65 221.791 345.586 221.59 345.55C219.49 345.17 216.77 347.88 215.87 349.55C215.8 349.68 215.07 351.55 214.87 352C214.6 350.57 214.34 349.15 214.14 347.74C213.857 345.836 213.7 343.915 213.67 341.99C213.81 341.99 217.42 342.23 218.95 341.65C219.685 341.42 220.362 341.033 220.932 340.515C221.502 339.996 221.952 339.36 222.25 338.65C222.36 338.313 222.398 337.957 222.361 337.605C222.324 337.252 222.214 336.912 222.036 336.605C221.859 336.298 221.619 336.032 221.332 335.825C221.045 335.617 220.717 335.472 220.37 335.4C218.27 335.01 215.54 337.73 214.64 339.4C214.57 339.53 213.79 341.51 213.64 341.88C213.64 341.77 213.64 341.66 213.64 341.54C213.67 339.61 213.864 337.687 214.22 335.79C214.41 334.79 214.65 333.79 214.9 332.79C215.57 332.9 218.63 333.38 220.06 333C221.49 332.62 223.06 331.8 223.67 330.41C223.815 330.087 223.891 329.737 223.893 329.383C223.895 329.029 223.822 328.678 223.68 328.354C223.538 328.03 223.329 327.739 223.067 327.501C222.805 327.262 222.496 327.081 222.16 326.97C220.16 326.36 217.16 328.76 216.03 330.33C215.97 330.41 215.47 331.33 215.11 332.03C215.23 331.6 215.35 331.15 215.47 330.74C215.94 329.2 216.47 327.81 216.92 326.58C217.2 325.89 217.46 325.27 217.7 324.69C218.42 324.45 221.28 323.49 222.36 322.51C223.44 321.53 224.5 320.04 224.36 318.51C224.341 318.156 224.247 317.809 224.085 317.494C223.924 317.178 223.697 316.9 223.421 316.677C223.145 316.455 222.825 316.293 222.482 316.202C222.139 316.111 221.78 316.093 221.43 316.15C219.33 316.55 217.77 320.07 217.54 321.96C217.54 322.13 217.49 324.72 217.54 324.71C217.29 325.27 217.03 325.86 216.76 326.52C216.26 327.74 215.71 329.12 215.21 330.66C214.658 332.316 214.2 334.002 213.84 335.71C213.434 337.625 213.196 339.573 213.13 341.53V341.64C212.96 341.04 212.42 339.37 212.37 339.25C211.58 337.51 209.04 334.62 206.92 334.86C206.569 334.909 206.233 335.032 205.932 335.22C205.632 335.409 205.375 335.658 205.178 335.953C204.981 336.247 204.848 336.58 204.788 336.929C204.728 337.279 204.742 337.637 204.83 337.98C205.26 339.42 206.74 340.54 208 341.14Z" fill="#263238"/>
<path d="M359.64 253.8L355.65 248.85L359.24 246.02L361.65 249.03L360.83 250.94L361.51 252.46L360.1 253.47" fill="white"/>
<path d="M359.64 253.8L355.65 248.85L359.24 246.02L361.65 249.03L360.83 250.94L361.51 252.46L360.1 253.47" stroke="#263238" stroke-linecap="round" stroke-linejoin="round"/>
<path d="M392 262.39C392 262.39 389.27 259.95 388.25 260.11C387.23 260.27 373.85 262.51 373.85 262.51L361.54 252.46L359.66 253.8L371.44 268.58L384.24 267.78L381.49 281.78L369.84 290.64L388.84 301.99L392.67 289.91L407.8 275.01L401.92 267.64L392 262.39Z" fill="black" stroke="#263238" stroke-linecap="round" stroke-linejoin="round"/>
<path d="M395.9 259.16L393.75 263.68L392.96 262.96L391.45 273.95L401.93 267.6L400.88 265.94L401.12 262.51L395.9 259.16Z" fill="white" stroke="#263238" stroke-linecap="round" stroke-linejoin="round"/>
<path d="M391.45 273.95L397.58 270.23L392.46 266.63L391.45 273.95Z" fill="white" stroke="#263238" stroke-linecap="round" stroke-linejoin="round"/>
<path d="M408 248.39C408 248.39 412.63 242.97 417.34 246.39C422.05 249.81 420.75 253.15 424.11 251.32C427.47 249.49 433.78 244.84 437.58 250.76C441.38 256.68 438.45 262.88 436.06 264.3C433.67 265.72 434.3 263.01 434.35 261.7C434.4 260.39 430.48 258.7 429.61 261.4C428.74 264.1 424.17 268.26 418.37 267.87C412.57 267.48 411.45 260.35 411.58 256.16C411.572 254.902 411.236 253.668 410.607 252.58C409.978 251.491 409.076 250.585 407.99 249.95L408 248.39Z" fill="#263238" stroke="#263238" stroke-linecap="round" stroke-linejoin="round"/>
<path d="M396.9 247.27C396.9 247.27 394 253.73 394.6 257.54C395.2 261.35 394.88 264.28 396.82 265.02C398.76 265.76 405.19 261.87 406.61 259.3C408.03 256.73 410.06 253.02 409.5 249.46C408.94 245.9 402.12 240.72 396.9 247.27Z" fill="white" stroke="#263238" stroke-linecap="round" stroke-linejoin="round"/>
<path d="M398 254.05C397.85 254.55 397.53 254.89 397.28 254.81C397.03 254.73 396.95 254.27 397.1 253.81C397.25 253.35 397.57 252.97 397.82 253.05C398.07 253.13 398.11 253.55 398 254.05Z" fill="#263238"/>
<path d="M402.62 255.97C402.47 256.47 402.14 256.82 401.89 256.74C401.64 256.66 401.56 256.2 401.71 255.74C401.86 255.28 402.19 254.9 402.44 254.97C402.69 255.04 402.77 255.47 402.62 255.97Z" fill="#263238"/>
<path d="M399.17 254.88C399.17 254.88 399.47 255.1 399.05 255.88C398.63 256.66 397.62 256.38 397.73 257.05C397.84 257.72 399.11 258.05 399.11 258.05" stroke="#263238" stroke-linecap="round" stroke-linejoin="round"/>
<path d="M396.84 259.21C396.84 259.21 398.45 260.73 399.89 260.36" stroke="#263238" stroke-linecap="round" stroke-linejoin="round"/>
<path d="M404.14 254.37L401.15 253.61" stroke="#263238" stroke-linecap="round" stroke-linejoin="round"/>
<path d="M398.79 252.48L397.36 251.2" stroke="#263238" stroke-linecap="round" stroke-linejoin="round"/>
<path d="M396.9 247.27C396.9 247.27 396.47 248.27 395.97 249.64C397.66 248.76 400.57 247.77 403.23 249.41C405.89 251.05 407.23 254.82 407.77 257.13C408.9 254.84 409.91 252.13 409.5 249.46C408.94 245.9 402.12 240.72 396.9 247.27Z" fill="#263238" stroke="#263238" stroke-linecap="round" stroke-linejoin="round"/>
<path d="M407.08 257.03C407.08 257.03 409.16 255.12 409.08 256.86C409 258.6 406.61 259.63 406.08 259.71C405.55 259.79 405.59 259.12 405.59 259.12" fill="white"/>
<path d="M407.08 257.03C407.08 257.03 409.16 255.12 409.08 256.86C409 258.6 406.61 259.63 406.08 259.71C405.55 259.79 405.59 259.12 405.59 259.12" stroke="#263238" stroke-linecap="round" stroke-linejoin="round"/>
<path d="M407.79 275.02L404.59 297.83C404.52 298.315 404.281 298.761 403.915 299.088C403.55 299.416 403.08 299.604 402.59 299.62H401.9C401.368 299.64 400.848 299.455 400.448 299.103C400.048 298.752 399.798 298.26 399.75 297.73L398.5 284.01L407.79 275.02Z" fill="black" stroke="#263238" stroke-linecap="round" stroke-linejoin="round"/>
<path d="M402 294.7L391.73 285.64L389.43 287.57L399.29 298.98C399.506 299.213 399.772 299.394 400.069 299.508C400.365 299.623 400.684 299.668 401 299.64H401.81C402.121 299.627 402.424 299.545 402.699 299.4C402.974 299.255 403.213 299.051 403.399 298.802C403.585 298.552 403.713 298.265 403.773 297.96C403.834 297.656 403.826 297.341 403.75 297.04V297.04" fill="black"/>
<path d="M402 294.7L391.73 285.64L389.43 287.57L399.29 298.98C399.506 299.213 399.772 299.394 400.069 299.508C400.365 299.623 400.684 299.668 401 299.64H401.81C402.121 299.627 402.424 299.545 402.699 299.4C402.974 299.255 403.213 299.051 403.399 298.802C403.585 298.552 403.713 298.265 403.773 297.96C403.834 297.656 403.826 297.341 403.75 297.04V297.04" stroke="#263238" stroke-linecap="round" stroke-linejoin="round"/>
<path d="M391.73 285.63L389.32 281.78L383.9 281.18L383.93 284.41L386.53 286.58L388.18 286.81L389.43 287.56L391.73 285.63Z" fill="white" stroke="#263238" stroke-linecap="round" stroke-linejoin="round"/>
<path d="M362.71 297.64C362.71 297.64 351.39 312.37 352.01 314.81C352.63 317.25 369.17 343.08 369.17 343.08L371.47 341.56L362.38 313.18L380.65 305.91L362.71 297.64Z" fill="white" stroke="#263238" stroke-linecap="round" stroke-linejoin="round"/>
<path d="M371.83 303.1L373.17 308.99L379.22 306.67L371.83 303.1Z" fill="#263238" stroke="#263238" stroke-miterlimit="10"/>
<path d="M369.17 343.03L366.17 348.03C366.17 348.03 363.78 351.61 364.48 351.83C366.01 352.32 369.97 349.72 371.1 348.92C372.23 348.12 373.44 347.59 374.19 347.06C374.94 346.53 376.44 346.22 374.39 344.32C373.7 343.69 371.51 341.51 371.51 341.51L369.17 343.03Z" fill="white" stroke="#263238" stroke-linecap="round" stroke-linejoin="round"/>
<path d="M387.86 292.94C382.764 290.907 377.552 289.181 372.25 287.77C363.08 285.28 356.3 283.35 356.43 285.64C356.56 287.93 373.24 324.82 373.24 324.82L376.1 323.91L371.74 303.57C371.74 303.57 378.74 308.47 383.91 306.04C389.08 303.61 391.05 297.04 390.69 294.8" fill="#263238"/>
<path d="M387.86 292.94C382.764 290.907 377.552 289.181 372.25 287.77C363.08 285.28 356.3 283.35 356.43 285.64C356.56 287.93 373.24 324.82 373.24 324.82L376.1 323.91L371.74 303.57C371.74 303.57 378.74 308.47 383.91 306.04C389.08 303.61 391.05 297.04 390.69 294.8" stroke="#263238" stroke-linecap="round" stroke-linejoin="round"/>
<path d="M370.3 287.24C362.14 285.03 356.3 283.51 356.43 285.64C356.56 287.93 373.24 324.82 373.24 324.82L376.1 323.91L371.74 303.57C373.23 299.94 371.65 292.31 370.3 287.24Z" fill="white" stroke="#263238" stroke-linecap="round" stroke-linejoin="round"/>
<path d="M371.74 303.57L364.55 293.14" stroke="#263238" stroke-linecap="round" stroke-linejoin="round"/>
<path d="M373.24 324.82L370.56 329.87C370.56 329.87 365.15 335.11 366.35 335.38C367.55 335.65 377.72 331.28 378.48 330.24C379.24 329.2 376.1 323.91 376.1 323.91L373.24 324.82Z" fill="white" stroke="#263238" stroke-linecap="round" stroke-linejoin="round"/>
<path d="M360.8 251.36L386.02 281.39" stroke="#263238" stroke-miterlimit="10"/>
<path d="M283.2 158.36L357.21 246.92" stroke="#263238" stroke-miterlimit="10"/>
<path d="M388.18 286.8V432.8" stroke="#263238" stroke-miterlimit="10"/>
<path d="M147.33 246.23C147.33 246.23 152.65 277.36 146.87 287.23C141.09 297.1 126.59 290 126.59 290V431.8" stroke="#263238" stroke-miterlimit="10"/>
<path d="M115.39 257.88C115.39 257.88 120.1 257.34 120.46 258.43C120.658 259.322 120.658 260.247 120.46 261.14C120.46 261.14 123.17 264.04 123.17 266.03C123.17 268.02 120.28 268.93 120.28 268.93L119.74 273.63L112.5 273.99L111.59 268.38C111.59 268.38 108.87 257.7 115.39 257.88Z" fill="white" stroke="#263238" stroke-linecap="round" stroke-linejoin="round"/>
<path d="M116.84 265.64L114.84 262.74C115.511 261.649 115.884 260.401 115.92 259.12C115.92 257.12 115.74 253.51 111.58 253.51C107.42 253.51 104.7 256.77 103.8 263.83C102.9 270.89 107.05 274.33 113.03 273.06C119.01 271.79 116.84 265.64 116.84 265.64Z" fill="#263238" stroke="#263238" stroke-linecap="round" stroke-linejoin="round"/>
<path d="M116.66 264.4C116.66 264.4 113.58 264.04 113.76 266.4C113.808 266.907 114.008 267.388 114.334 267.779C114.661 268.17 115.098 268.453 115.589 268.591C116.079 268.728 116.6 268.714 117.082 268.55C117.565 268.385 117.986 268.078 118.29 267.67" fill="white"/>
<path d="M116.66 264.4C116.66 264.4 113.58 264.04 113.76 266.4C113.808 266.907 114.008 267.388 114.334 267.779C114.661 268.17 115.098 268.453 115.589 268.591C116.079 268.728 116.6 268.714 117.082 268.55C117.565 268.385 117.986 268.078 118.29 267.67" stroke="#263238" stroke-linecap="round" stroke-linejoin="round"/>
<path d="M112.37 275.76L105.7 277.64C105.7 277.64 105.18 278.94 104.4 280.64C103.35 282.95 100.46 287.64 100.46 287.64L87.1101 291.45L82.8201 305.28L81.8701 311L89.4901 307.18L89.9701 293.84L101.97 291.99L107.12 278.99L112.37 275.76Z" fill="#263238" stroke="#263238" stroke-linecap="round" stroke-linejoin="round"/>
<path d="M123 273.81C123 273.81 117.75 271.46 113.77 272C109.79 272.54 110.15 274.54 110.15 274.54L110.33 277.25C110.33 277.25 117 275.26 123 273.81Z" fill="black" stroke="#263238" stroke-linecap="round" stroke-linejoin="round"/>
<path d="M105.07 287.03L108.82 304.37C108.849 304.578 108.927 304.776 109.047 304.948C109.168 305.12 109.327 305.261 109.513 305.358C109.699 305.456 109.905 305.508 110.115 305.51C110.325 305.512 110.533 305.464 110.72 305.37L119.19 301.14L105.07 287.03Z" fill="black" stroke="#263238" stroke-linecap="round" stroke-linejoin="round"/>
<path d="M114.49 296.26L112.5 300.24" stroke="#263238" stroke-linecap="round" stroke-linejoin="round"/>
<path d="M132.04 313.82L142.97 331.9L141.52 356.35L146.77 356.17L152.02 327.01L144.35 306.58L132.04 313.82Z" fill="#263238" stroke="#263238" stroke-linecap="round" stroke-linejoin="round"/>
<path d="M110.32 277.25C110.32 277.25 105.07 286.3 105.07 287.03C105.07 287.76 125.53 307.48 125.53 307.48L141.1 297.16L131.32 280.16L145.4 266.34L146.48 247.69L143.95 247.51L139.42 261.09L124.42 272.91L110.32 277.25Z" fill="black" stroke="#263238" stroke-linecap="round" stroke-linejoin="round"/>
<path d="M143.95 247.51L144.13 243.35L148.65 239.91L149.02 240.81V243.53L149.2 245.7L146.48 247.69L143.95 247.51Z" fill="white" stroke="#263238" stroke-linecap="round" stroke-linejoin="round"/>
<path d="M125.53 307.48C125.53 307.48 128.97 313.27 131.53 315.08C134.09 316.89 142 311.28 144 309.64C146 308 153.6 298.24 153.6 298.24L160.66 328.32L165.01 326.51C165.01 326.51 162.46 286.51 161.2 285.39C159.94 284.27 140.38 296.97 140.38 296.97L125.53 307.48Z" fill="#263238" stroke="#263238" stroke-linecap="round" stroke-linejoin="round"/>
<path d="M165 326.52H171.15C172.24 326.52 174.95 324.89 175.15 326.16C175.35 327.43 169.9 330.86 167.72 331.95C165.627 332.763 163.44 333.31 161.21 333.58L160.66 328.33L165 326.52Z" fill="white" stroke="#263238" stroke-linecap="round" stroke-linejoin="round"/>
<path d="M146.77 356.17L149.85 361.78C149.85 361.78 153.65 363.41 153.65 364.14C153.65 364.87 147.5 364.5 146.95 364.5C146.4 364.5 140.26 358.5 140.26 358.5L141.52 356.32L146.77 356.17Z" fill="white" stroke="#263238" stroke-linecap="round" stroke-linejoin="round"/>
<path d="M148.65 239.91L207.74 158.89" stroke="#263238" stroke-miterlimit="10"/>
<path d="M1 432.84H475" stroke="#263238" stroke-linecap="round" stroke-linejoin="round"/>
</svg>
